<svg id="s-logo" xmlns="http://www.w3.org/2000/svg" width="36.083" height="33.083" viewBox="0 0 36.083 33.083">
  <path id="Path_81" data-name="Path 81" d="M18.041,0c9.964,0,18.041,7.406,18.041,16.541S28.005,33.083,18.041,33.083,0,25.677,0,16.541,8.077,0,18.041,0Z" fill="#0068ff"/>
  <path id="Path_82" data-name="Path 82" d="M3.67,140H33.261a17.944,17.944,0,0,1,3.214,9.241A17.976,17.976,0,0,1,31.5,160.649H5.431A17.976,17.976,0,0,1,.456,149.241,17.944,17.944,0,0,1,3.67,140Z" transform="translate(-0.424 -132.051)" fill="#005dea"/>
  <path id="Path_83" data-name="Path 83" d="M36.083,101.276c0,.023,0,.046,0,.068q0,.177,0,.354a17.957,17.957,0,0,1-3.246,10.324H3.246A17.957,17.957,0,0,1,0,101.7q0-.178,0-.354c0-.023,0-.045,0-.068V91.41A1.409,1.409,0,0,1,1.409,90H34.673a1.409,1.409,0,0,1,1.409,1.409Z" transform="translate(0 -85.011)" fill="#00c8ff"/>
  <path id="Path_85" data-name="Path 85" d="M33.742,144.99v11.728a1.41,1.41,0,0,1-1.409,1.409H25.1a1.41,1.41,0,0,1-1.409-1.409V144.99A1.409,1.409,0,0,1,25.1,143.58h7.232A1.41,1.41,0,0,1,33.742,144.99Zm9.937-1.409H36.447a1.409,1.409,0,0,0-1.409,1.409v11.728a1.41,1.41,0,0,0,1.409,1.409h7.232a1.41,1.41,0,0,0,1.409-1.409V144.99A1.409,1.409,0,0,0,43.679,143.58Zm11.346,0H47.793a1.409,1.409,0,0,0-1.409,1.409v11.728a1.41,1.41,0,0,0,1.409,1.409h7.232a1.41,1.41,0,0,0,1.409-1.409V144.99A1.409,1.409,0,0,0,55.025,143.58Z" transform="translate(-22.021 -134.871)" fill="#0068ff"/>
  <path id="Path_86" data-name="Path 86" d="M68.865,191.4v7.7a.735.735,0,0,1-.735.735h-.588a.735.735,0,0,1-.735-.735v-4.811h-.48a.637.637,0,0,1-.487-1.047l1.631-2.282a.831.831,0,0,1,.636-.3h.021A.736.736,0,0,1,68.865,191.4Zm13.8,2.831v2.038a3.566,3.566,0,0,1-7.133,0v-2.038a3.566,3.566,0,1,1,7.133,0Zm-2.038,0a1.528,1.528,0,0,0-3.057,0v2.038a1.528,1.528,0,1,0,3.057,0Zm13.384,0v2.038a3.566,3.566,0,0,1-7.133,0v-2.038a3.566,3.566,0,0,1,7.133,0Zm-2.038,0a1.528,1.528,0,0,0-3.057,0v2.038a1.528,1.528,0,1,0,3.057,0Z" transform="translate(-61.062 -178.727)" fill="#fff"/>
  <path id="Path_87" data-name="Path 87" d="M56.435,144.99v.508H46.384v-.508a1.409,1.409,0,0,1,1.409-1.409h7.232A1.41,1.41,0,0,1,56.435,144.99ZM43.679,143.58H36.447a1.409,1.409,0,0,0-1.409,1.409v.508H45.088v-.508A1.409,1.409,0,0,0,43.679,143.58Zm-11.346,0H25.1a1.409,1.409,0,0,0-1.409,1.409v.508H33.742v-.508A1.409,1.409,0,0,0,32.332,143.58Z" transform="translate(-22.021 -134.35)" fill="#005dea"/>
</svg>
