<?xml version="1.0" standalone="no"?>
<!DOCTYPE svg PUBLIC "-//W3C//DTD SVG 20010904//EN"
 "http://www.w3.org/TR/2001/REC-SVG-20010904/DTD/svg10.dtd">
<svg version="1.0" xmlns="http://www.w3.org/2000/svg"
 width="528.000000pt" height="528.000000pt" viewBox="0 0 528.000000 528.000000"
 preserveAspectRatio="xMidYMid meet">
<metadata>
Created by potrace 1.11, written by Peter Selinger 2001-2013
</metadata>
<g transform="translate(0.000000,528.000000) scale(0.100000,-0.100000)"
fill="#000000" stroke="none">
<path d="M2540 4259 c-501 -36 -1007 -268 -1369 -628 -349 -347 -555 -762
-621 -1250 -19 -140 -15 -447 6 -563 l6 -28 99 0 c95 0 99 -1 89 -19 -22 -42
-15 -51 57 -76 8 -3 4 -25 -14 -77 -14 -40 -27 -103 -30 -139 l-6 -67 59 -22
c100 -37 105 -36 119 40 15 82 47 175 60 175 5 0 19 -14 31 -32 18 -27 20 -39
13 -80 -12 -79 -6 -90 68 -113 97 -30 95 -31 120 59 12 44 33 106 46 137 l25
58 -1 -50 c0 -57 28 -121 70 -154 39 -31 121 -25 182 14 43 27 43 27 65 8 54
-49 88 -50 145 -3 l34 28 43 -28 c64 -44 99 -48 134 -14 l29 28 61 -27 c69
-31 68 -31 155 39 32 25 52 33 96 37 53 4 58 3 73 -23 50 -85 129 -102 223
-49 29 17 53 26 53 21 0 -5 26 -18 58 -29 98 -35 102 -36 102 -13 0 12 15 51
34 87 l33 66 -1 -40 c0 -22 6 -47 14 -57 19 -23 108 -65 137 -65 40 0 210 209
197 243 -3 10 -26 22 -50 28 -48 12 -51 16 -29 45 8 10 15 29 15 42 0 21 3 22
100 22 55 0 100 -2 100 -5 0 -3 -5 -14 -12 -24 -16 -27 -3 -50 32 -57 17 -4
33 -10 35 -14 3 -5 -4 -30 -16 -57 -29 -67 -47 -196 -30 -216 10 -13 120 -57
142 -57 4 0 10 15 14 32 21 98 59 218 69 215 6 -2 20 -17 32 -35 18 -26 20
-38 13 -79 -12 -80 -6 -90 71 -113 37 -11 74 -20 81 -20 9 0 21 24 32 67 18
71 68 205 73 200 2 -2 -1 -19 -6 -38 -25 -87 -6 -131 72 -164 53 -21 63 -19
108 21 l41 37 22 -21 c27 -25 88 -52 119 -52 12 0 39 16 59 36 l37 36 42 -31
c46 -33 96 -47 129 -36 21 6 115 112 167 187 l27 39 -20 20 c-11 12 -35 21
-56 22 l-35 2 25 35 c14 19 33 42 42 50 9 8 31 50 49 93 31 74 32 79 17 108
-32 61 -125 89 -180 53 l-25 -16 0 45 c0 47 -16 72 -26 40 -3 -10 -13 -34 -22
-53 l-16 -35 -5 33 c-7 38 -25 47 -29 14 -2 -12 -7 -20 -12 -17 -5 3 -25 6
-44 7 -33 1 -35 4 -38 37 l-3 36 -19 -40 -18 -40 -10 28 c-6 15 -7 40 -3 55 9
35 8 36 -3 40 -6 2 -13 -6 -17 -17 -8 -27 -29 -28 -22 -1 3 10 1 20 -3 22 -4
2 -10 35 -13 73 -3 39 -15 115 -26 169 -11 55 -17 104 -14 109 4 6 1 7 -7 2
-10 -6 -12 3 -8 44 3 29 2 47 -2 41 -4 -7 -10 1 -14 20 -3 18 -3 37 1 43 3 5
2 7 -4 4 -5 -3 -14 19 -19 53 -11 63 -6 69 12 17 7 -18 16 -31 22 -30 6 2 16
-16 22 -38 8 -28 16 -39 25 -35 9 3 15 -4 17 -22 2 -19 8 -27 21 -25 15 1 18
-4 14 -23 -2 -14 2 -29 11 -36 13 -11 14 -11 8 0 -7 11 -4 11 11 2 14 -9 18
-21 15 -42 -4 -24 -1 -29 14 -26 16 3 20 -5 24 -51 5 -58 25 -79 36 -37 3 14
10 26 14 26 4 0 7 42 6 93 -1 78 -5 100 -27 142 -51 100 -61 115 -70 115 -5 0
-9 8 -9 18 1 13 5 11 21 -11 20 -26 22 -27 35 -10 8 11 13 13 14 6 0 -7 11
-13 25 -13 24 0 37 -10 68 -54 15 -20 42 -13 30 7 -3 7 3 4 15 -7 12 -10 19
-24 15 -30 -3 -6 -3 -8 2 -4 4 4 14 3 22 -4 7 -6 16 -8 19 -5 8 8 -15 77 -37
108 -10 14 -16 29 -14 33 3 3 3 4 0 2 -3 -2 -22 12 -43 31 -20 18 -53 41 -74
50 -20 9 -35 20 -33 24 3 4 -4 5 -15 2 -11 -3 -28 -2 -37 2 -10 5 -24 7 -30 6
-7 -1 -13 3 -13 9 0 5 -8 10 -17 10 -9 0 -13 3 -9 7 4 4 22 6 40 5 23 -2 36 3
40 14 4 12 13 14 31 10 18 -5 27 -2 31 9 4 10 14 13 28 9 15 -3 28 1 37 12 12
16 12 17 -1 9 -12 -6 -13 -5 -2 6 10 10 18 11 45 1 43 -15 48 -15 41 2 -8 22
12 28 57 16 25 -7 45 -8 51 -2 10 10 -72 64 -126 82 -41 13 -155 12 -173 -2
-7 -5 -17 -7 -23 -3 -5 3 -10 1 -10 -4 0 -6 -6 -11 -12 -11 -7 0 -35 -11 -62
-25 -56 -28 -60 -29 -50 -14 3 6 1 15 -7 20 -10 6 -6 11 14 18 28 11 35 25 17
36 -6 4 -8 11 -4 16 3 5 9 7 13 5 4 -3 7 4 8 14 1 11 -3 22 -8 26 -6 3 5 21
26 39 35 32 35 34 13 41 l-22 7 21 16 c19 16 43 52 43 66 0 3 -14 -2 -31 -11
-17 -8 -28 -11 -25 -6 4 6 -2 8 -15 5 -14 -4 -17 -8 -9 -13 9 -6 7 -10 -6 -14
-11 -3 -32 -17 -48 -31 -16 -13 -33 -22 -37 -19 -5 3 -9 -4 -9 -14 0 -24 -26
-49 -32 -30 -3 8 -7 6 -11 -6 -4 -10 -3 -15 3 -11 13 8 13 -8 1 -20 -5 -6 -11
-21 -13 -35 -2 -14 -8 -24 -13 -23 -6 1 -10 -16 -10 -38 0 -24 -4 -39 -12 -39
-6 0 -15 -4 -18 -10 -4 -6 1 -7 12 -3 15 5 16 3 6 -8 -16 -16 -17 -33 -1 -23
7 4 8 3 4 -5 -9 -15 -36 4 -36 25 0 7 -5 16 -12 20 -7 5 -8 3 -3 -6 5 -9 4
-11 -4 -6 -9 6 -9 11 1 23 10 12 9 15 -7 13 -47 -5 -60 13 -31 42 11 12 11 17
-1 34 -15 18 -15 18 -10 -3 3 -13 1 -23 -4 -23 -5 0 -9 -7 -9 -17 0 -25 -9
-10 -14 23 -3 16 -9 43 -14 59 -10 28 -10 27 -12 -20 -1 -27 -4 -45 -6 -38 -4
7 -14 9 -34 3 -23 -7 -27 -5 -25 8 1 10 9 17 16 16 12 -1 14 13 11 68 -4 72 9
109 28 78 13 -22 18 -11 22 57 3 50 1 60 -9 51 -9 -8 -13 -7 -13 2 0 7 -6 10
-13 7 -28 -10 -32 31 -27 263 3 129 7 231 8 226 1 -5 11 1 22 14 24 28 25 34
5 26 -8 -3 -14 0 -12 6 3 13 -212 126 -329 171 -204 80 -416 130 -628 147
-141 11 -208 11 -366 -1z m1269 -310 c-12 -8 -11 -11 1 -19 9 -6 10 -10 3 -10
-6 0 -15 5 -18 10 -10 16 3 42 16 34 8 -4 7 -9 -2 -15z m35 -15 c3 -8 2 -12
-4 -9 -6 3 -10 10 -10 16 0 14 7 11 14 -7z m-50 -540 c3 -8 2 -12 -4 -9 -6 3
-10 10 -10 16 0 14 7 11 14 -7z m29 -9 c-3 -9 -8 -14 -10 -11 -3 3 -2 9 2 15
9 16 15 13 8 -4z m51 -13 c3 -5 -1 -9 -9 -9 -8 0 -12 4 -9 9 3 4 7 8 9 8 2 0
6 -4 9 -8z m-84 -12 c0 -5 -2 -10 -4 -10 -3 0 -8 5 -11 10 -3 6 -1 10 4 10 6
0 11 -4 11 -10z m-319 -20 c101 -31 195 -98 142 -101 -18 -1 25 -16 62 -23 11
-1 20 -7 20 -12 0 -5 8 -26 18 -47 19 -39 16 -57 -9 -57 -26 0 -14 -17 17 -24
18 -3 28 -10 24 -16 -4 -6 -1 -17 5 -25 7 -8 13 -32 14 -54 1 -40 1 -40 -55
-60 -51 -19 -148 -95 -136 -107 3 -3 19 2 36 10 39 21 44 20 36 -4 -8 -26 -3
-25 52 7 l45 26 -7 -24 c-4 -13 -14 -34 -21 -47 -8 -12 -12 -27 -9 -32 3 -6
-1 -7 -9 -4 -33 13 -14 -16 24 -37 22 -13 40 -25 40 -29 0 -3 -9 -31 -20 -63
-20 -57 -27 -157 -12 -157 5 0 14 18 21 41 10 33 15 38 26 29 11 -9 17 -4 30
25 8 21 15 42 15 47 0 6 7 4 16 -3 14 -11 18 -10 31 6 15 20 15 19 10 -2 -6
-25 9 -41 24 -26 4 4 9 22 11 39 1 17 8 31 15 31 9 0 10 -4 2 -13 -6 -7 -8
-22 -4 -34 3 -11 3 -20 -2 -20 -4 0 -8 -16 -9 -35 0 -19 3 -32 8 -29 4 3 5 -2
2 -10 -3 -8 4 -33 14 -55 11 -23 16 -41 11 -41 -6 0 -7 -6 -2 -12 4 -7 7 -30
6 -50 -1 -21 2 -38 7 -38 6 0 10 -5 10 -11 0 -5 -4 -8 -9 -5 -5 3 -12 -1 -15
-9 -4 -12 -2 -13 13 -6 10 6 24 18 32 27 9 12 9 15 2 10 -8 -4 -13 -2 -13 4 0
6 -5 8 -11 4 -7 -4 -7 1 1 16 8 15 8 20 1 16 -6 -4 -11 0 -11 8 0 9 4 16 9 16
12 0 22 -30 14 -43 -4 -6 0 -8 10 -4 11 4 17 1 17 -8 0 -8 8 -15 18 -15 10 0
23 -5 30 -12 18 -18 23 -5 12 32 -7 24 -6 38 3 49 9 12 9 13 0 7 -14 -8 -18 6
-6 18 4 4 8 18 9 31 0 17 -3 22 -14 17 -11 -4 -13 -2 -6 9 5 8 10 28 11 44 0
17 2 30 3 30 2 0 4 10 5 23 1 12 -2 22 -6 22 -11 0 -7 22 4 31 4 3 3 18 -3 34
-7 20 -7 31 1 41 6 8 9 23 6 34 -3 11 -1 18 4 14 12 -7 11 -41 -2 -49 -6 -5
-4 -12 7 -20 12 -8 18 -26 18 -53 1 -22 5 -38 10 -35 4 3 5 -3 2 -14 -4 -11 0
-45 8 -76 8 -30 12 -65 9 -76 -3 -12 -1 -21 5 -21 12 0 17 -27 38 -209 11
-103 13 -146 5 -154 -8 -8 -11 4 -11 44 -1 48 -2 52 -14 36 -8 -10 -17 -38
-21 -63 -5 -38 -9 -43 -21 -33 -8 6 -14 23 -14 37 0 23 -1 24 -17 9 -16 -13
-20 -14 -37 -1 -11 8 -36 14 -55 15 -32 0 -44 9 -111 84 -73 82 -76 84 -122
84 -49 1 -53 5 -150 144 -19 27 -95 33 -155 13 -26 -9 -82 -19 -123 -23 -91
-7 -148 -34 -210 -97 -24 -25 -52 -46 -62 -46 -9 0 -33 -14 -52 -30 -22 -20
-40 -28 -51 -24 -19 8 -18 44 7 207 15 100 29 80 31 -44 1 -49 5 -89 9 -89 21
0 42 56 43 116 0 40 4 64 11 64 6 0 32 -21 57 -47 41 -42 47 -45 47 -25 0 36
-27 92 -56 114 -33 27 -17 39 51 37 72 -1 85 0 85 9 0 18 -61 42 -109 42 -28
0 -51 5 -51 10 0 11 24 37 60 63 25 18 25 18 -31 13 -55 -6 -56 -5 -86 32 -16
20 -54 50 -84 66 -33 17 -43 26 -26 22 16 -4 27 -2 27 4 0 6 10 8 25 4 14 -3
25 -2 25 4 0 6 9 8 20 5 11 -3 20 -1 20 5 0 8 9 8 31 0 23 -8 33 -8 39 1 4 8
18 10 36 6 l29 -6 -28 25 c-52 47 -154 65 -234 40 -10 -3 -7 1 7 10 14 8 47
18 73 21 52 8 52 7 31 78 -3 10 0 17 7 17 7 0 5 6 -6 14 -15 11 -17 22 -12 72
11 102 23 130 63 149 25 12 34 21 30 32 -9 23 47 69 113 92 75 26 180 27 262
1z m409 -10 c-24 -15 -37 -11 -16 5 11 8 22 12 25 9 3 -3 -1 -9 -9 -14z m-43
-10 c1 -11 -2 -22 -8 -25 -5 -4 -6 2 -2 11 5 13 3 15 -8 9 -12 -8 -12 -6 0 8
17 21 16 21 18 -3z m-7 -55 c10 -12 10 -21 1 -38 l-11 -22 6 23 c4 16 0 28
-13 37 -10 8 -13 15 -7 15 6 0 17 -7 24 -15z m-100 1 c0 -2 -7 -7 -16 -10 -8
-3 -12 -2 -9 4 6 10 25 14 25 6z m75 -259 c-8 -13 -12 -27 -8 -31 4 -4 0 -4
-10 -1 -14 6 -15 9 -2 22 8 8 15 19 15 24 0 5 5 9 10 9 6 0 4 -10 -5 -23z m30
-17 c-3 -5 -12 -10 -18 -10 -7 0 -6 4 3 10 19 12 23 12 15 0z m-2392 -21 c12
-6 32 -23 43 -37 20 -25 23 -25 62 -14 50 15 82 4 114 -38 13 -18 35 -38 51
-46 32 -17 33 -24 9 -54 -12 -15 -38 -26 -82 -35 l-65 -13 57 -1 c45 -1 63 -6
86 -26 35 -29 50 -31 59 -9 7 20 49 11 81 -18 17 -17 22 -33 22 -71 0 -44 -4
-54 -39 -88 -21 -22 -49 -39 -62 -40 -50 -2 -75 3 -102 22 l-28 20 -33 -20
c-50 -31 -119 -29 -145 5 -11 14 -23 35 -26 45 -5 16 -12 19 -35 14 -66 -15
-127 53 -116 129 8 50 8 76 0 143 -5 44 -2 57 17 84 21 29 68 58 97 59 7 0 23
-5 35 -11z m2394 -146 c-4 -3 1 -11 10 -18 13 -9 13 -14 3 -20 -9 -5 -11 -4
-6 3 4 7 1 12 -8 12 -10 0 -13 -6 -9 -17 4 -10 2 -14 -4 -10 -6 4 -13 3 -15
-2 -1 -5 -12 3 -22 17 -20 27 -20 27 1 9 19 -17 20 -16 31 8 6 14 15 25 18 25
4 0 4 -3 1 -7z m-2081 -101 c-12 -12 -18 8 -10 35 l8 28 4 -28 c2 -16 1 -31
-2 -35z m1981 16 c-3 -8 -6 -5 -6 6 -1 11 2 17 5 13 3 -3 4 -12 1 -19z m68 4
c-3 -3 -11 0 -18 7 -9 10 -8 11 6 5 10 -3 15 -9 12 -12z m-1073 -274 c-3 -159
-8 -228 -16 -228 -6 0 -58 14 -115 30 -73 21 -113 37 -133 56 -15 15 -28 32
-28 36 0 10 98 58 117 58 7 0 19 -13 28 -30 22 -42 34 -37 28 10 -4 26 -2 40
6 40 6 0 11 11 11 24 0 14 5 28 10 31 6 3 10 15 10 26 0 10 5 19 10 19 6 0 10
11 10 25 0 16 6 25 15 25 8 0 15 9 15 20 0 11 4 28 9 38 5 9 12 26 16 36 3 10
7 17 9 15 2 -2 1 -106 -2 -231z m60 158 c-8 -15 -24 24 -16 42 6 14 8 13 14
-8 4 -14 5 -29 2 -34z m128 -13 c0 -23 -17 -6 -29 29 l-11 33 20 -24 c11 -13
20 -30 20 -38z m80 -21 c0 -15 -2 -15 -10 -2 -13 20 -13 33 0 25 6 -3 10 -14
10 -23z m-193 -24 c15 -26 12 -48 -8 -59 -27 -14 -32 -8 -24 35 7 37 18 45 32
24z m121 -238 c-11 -74 -21 -137 -23 -138 -9 -9 -114 30 -119 44 -3 9 -6 57
-6 108 0 97 7 116 46 116 l22 0 -19 -50 c-13 -35 -17 -63 -13 -90 8 -51 15
-45 79 63 28 47 50 85 51 84 1 -1 -8 -63 -18 -137z m-1806 -599 l-26 -59 -28
19 c-32 23 -33 29 -13 69 13 25 21 30 54 30 l39 0 -26 -59z m268 52 c-1 -5
-12 -21 -26 -38 l-25 -30 17 38 c16 33 35 50 34 30z m1345 -3 c3 -5 1 -10 -4
-10 -6 0 -11 5 -11 10 0 6 2 10 4 10 3 0 8 -4 11 -10z m1002 -37 c-13 -26 -26
-54 -28 -60 -3 -9 -13 -5 -34 11 -30 24 -30 24 -13 58 14 30 21 34 57 36 l42
3 -24 -48z m-1914 -83 c-3 -10 -12 -25 -21 -32 -13 -11 -12 -8 2 20 19 36 27
41 19 12z m-328 -120 c-3 -5 -12 -10 -18 -10 -7 0 -6 4 3 10 19 12 23 12 15 0z"/>
<path d="M3895 2561 c-3 -5 -2 -12 3 -15 5 -3 9 1 9 9 0 17 -3 19 -12 6z"/>
<path d="M4100 2491 c0 -6 4 -13 10 -16 6 -3 7 1 4 9 -7 18 -14 21 -14 7z"/>
<path d="M4105 2440 c-3 -5 -1 -10 4 -10 6 0 11 5 11 10 0 6 -2 10 -4 10 -3 0
-8 -4 -11 -10z"/>
<path d="M4076 2348 c3 -4 11 -5 19 -1 21 7 19 12 -4 10 -11 0 -18 -5 -15 -9z"/>
<path d="M3925 3890 c-3 -6 1 -7 9 -4 18 7 21 14 7 14 -6 0 -13 -4 -16 -10z"/>
<path d="M3880 3875 c0 -9 5 -15 11 -13 6 2 11 8 11 13 0 5 -5 11 -11 13 -6 2
-11 -4 -11 -13z"/>
<path d="M3955 3880 c-3 -5 -1 -10 4 -10 6 0 11 5 11 10 0 6 -2 10 -4 10 -3 0
-8 -4 -11 -10z"/>
<path d="M3999 3857 c6 -8 7 -18 3 -22 -4 -5 -1 -5 6 -1 10 6 10 11 1 22 -6 8
-14 14 -16 14 -3 0 0 -6 6 -13z"/>
<path d="M3880 3480 c0 -22 5 -40 10 -40 6 0 10 18 10 40 0 22 -4 40 -10 40
-5 0 -10 -18 -10 -40z"/>
<path d="M3850 3430 c0 -5 5 -10 10 -10 6 0 10 5 10 10 0 6 -4 10 -10 10 -5 0
-10 -4 -10 -10z"/>
<path d="M3880 3419 c0 -5 5 -7 10 -4 6 3 10 8 10 11 0 2 -4 4 -10 4 -5 0 -10
-5 -10 -11z"/>
<path d="M3963 3085 c-8 -9 -9 -16 -3 -20 6 -3 10 -1 10 5 0 7 7 9 16 6 14 -5
15 -4 4 9 -15 18 -12 18 -27 0z"/>
<path d="M2483 1349 c-13 -4 -23 -14 -23 -21 0 -7 -8 -18 -18 -25 -11 -6 -25
-32 -32 -57 -9 -33 -18 -46 -31 -46 -15 0 -18 -8 -17 -42 1 -24 -2 -60 -7 -80
-7 -37 -7 -38 23 -38 27 0 31 4 42 47 12 51 23 63 57 63 17 0 24 -9 32 -37 6
-21 11 -43 11 -49 0 -5 6 -18 13 -28 12 -16 17 -17 38 -6 13 7 25 14 27 15 1
1 -6 22 -16 46 -11 24 -29 91 -42 149 -12 58 -25 108 -29 111 -3 4 -16 3 -28
-2z m-7 -146 c-14 -14 -23 4 -13 27 l10 25 5 -23 c2 -13 1 -26 -2 -29z"/>
<path d="M3146 1324 c-13 -34 -7 -44 29 -44 l35 0 0 -125 c0 -123 0 -125 23
-125 12 0 27 4 32 8 6 4 10 59 10 127 l0 120 30 0 c25 1 31 5 33 28 l3 27 -94
0 c-77 0 -96 -3 -101 -16z"/>
<path d="M3907 1304 c-4 -4 -7 -18 -7 -31 0 -21 4 -24 28 -21 21 2 27 8 27 28
0 18 -6 26 -20 28 -12 2 -24 0 -28 -4z"/>
<path d="M2693 1239 c-69 -20 -106 -111 -67 -167 17 -25 71 -31 92 -10 9 9 12
8 12 -5 0 -32 -25 -70 -55 -83 -30 -13 -29 -13 26 -14 50 0 57 3 67 25 7 14
12 71 12 127 0 91 -2 103 -22 119 -23 21 -21 21 -65 8z m37 -77 c0 -32 -16
-52 -42 -52 -21 0 -25 49 -6 68 23 23 48 14 48 -16z"/>
<path d="M2823 1243 c-9 -3 -13 -34 -13 -104 l0 -100 28 3 c25 3 27 7 32 60 5
61 13 74 45 80 26 4 35 58 10 58 -9 0 -25 -5 -36 -10 -15 -8 -19 -7 -19 5 0
15 -22 19 -47 8z"/>
<path d="M3015 1240 c-70 -29 -94 -131 -41 -177 63 -54 156 -8 156 77 0 31 -6
47 -25 64 -14 13 -25 28 -25 35 0 13 -36 14 -65 1z"/>
<path d="M3415 1236 c-41 -18 -65 -57 -65 -105 0 -32 6 -44 31 -65 35 -29 67
-33 108 -11 34 17 41 33 41 86 0 29 -8 50 -27 75 -31 37 -43 40 -88 20z"/>
<path d="M3677 1244 c-4 -4 -7 -27 -7 -51 0 -50 -14 -83 -35 -83 -12 0 -15 15
-15 66 l0 65 -27 -3 c-27 -3 -28 -5 -31 -68 -4 -80 2 -106 29 -121 16 -8 28
-8 46 0 21 10 27 9 37 -5 8 -10 20 -14 32 -10 19 6 20 14 18 109 -2 91 -5 102
-21 105 -10 2 -22 0 -26 -4z"/>
<path d="M3767 1243 c-4 -3 -7 -51 -7 -105 0 -88 2 -98 18 -98 29 0 42 21 42
70 0 49 13 70 42 70 13 0 18 8 18 30 0 23 -5 30 -19 30 -11 0 -23 -5 -27 -11
-5 -8 -10 -6 -16 5 -9 16 -39 22 -51 9z"/>
<path d="M4011 1224 c-40 -34 -39 -57 4 -90 39 -29 35 -47 -10 -58 -48 -12
-21 -58 28 -49 32 6 87 54 87 77 0 15 -48 66 -62 66 -21 0 -4 22 23 32 20 7
28 15 25 25 -3 8 -6 17 -6 19 0 2 -13 4 -29 4 -17 0 -42 -11 -60 -26z"/>
<path d="M4147 1243 c-4 -3 -7 -51 -7 -105 l0 -99 28 3 c26 3 27 6 32 68 4 51
9 66 23 68 15 3 17 -5 17 -57 0 -63 6 -70 44 -55 12 5 16 20 16 61 0 46 3 54
18 51 14 -3 18 -16 20 -76 3 -64 5 -72 23 -72 28 0 38 36 32 111 -8 97 -39
131 -88 95 -15 -10 -25 -11 -43 -3 -17 8 -29 8 -43 -1 -16 -10 -19 -9 -19 3 0
15 -40 21 -53 8z"/>
<path d="M3907 1224 c-4 -4 -7 -47 -7 -96 0 -95 8 -110 48 -89 18 9 19 15 11
46 -6 19 -9 59 -7 87 3 47 1 53 -17 56 -12 2 -24 0 -28 -4z"/>
</g>
</svg>
