<?xml version="1.0" encoding="UTF-8"?>
<svg version="1.1" viewBox="0 0 376.28 405.18" xmlns="http://www.w3.org/2000/svg">
 <g transform="translate(-180.33 -140.18)">
  <path transform="translate(180.43 140.28)" d="m171.41-0.09375c-3.3646 0.081679-7.3929 1.3607-12.594 3.9062-3.374 0.64256-5.5896 2.8347-6.9375 5.1875-0.1375-0.050762-0.27455-0.16213-0.40625-0.1875-1.614-0.3109-2.7042 0.24801-3.9688 0.8125-1.0558 0.47129-2.1805 1.1078-3.3125 1.75-2.1509-0.34393-4.3085-0.43436-6.2812-0.25-2.2216 0.20762-4.2054 0.64207-5.7812 1.6875-0.7879 0.52271-1.5329 1.2702-1.875 2.3438s-0.0882 2.3156 0.46875 3.25c0.0642 0.10779 0.21085 0.17714 0.28125 0.28125-0.78125 0.18003-1.6236 0.21155-2.3438 0.5-3.0722 1.2305-5.6007 3.2199-7 5.5938-0.69966 1.1869-1.1511 2.5541-0.875 4.0312s1.4398 2.7973 2.9062 3.4375c0.86938 0.37956 1.9103 0.60718 3.0312 0.71875-0.11861 0.14423-0.29993 0.2573-0.40625 0.40625-0.50648 0.70958-0.7363 1.5378-0.84375 2.375-2.3655-0.43794-4.4543-0.61933-6.0312-0.25-1.1971 0.28036-2.295 0.80643-3 1.875s-0.71651 2.5116-0.28125 3.5625c0.87052 2.1018 2.8431 3.4775 5.5938 4.5938 0.36797 0.14933 0.88235 0.21019 1.2812 0.34375-0.31401 0.14107-0.74479 0.25942-1.0312 0.40625-1.1893 0.6096-2.1616 1.2524-2.9062 2.2188-0.56167 0.72886-0.75779 1.771-0.6875 2.7812h-0.0937c-0.0601 0.5978 0.0322 1.203 0.21875 1.7812-0.73777 0.74914-1.477 1.4824-2.1875 2.25-0.47347 0.51149-0.75944 0.73018-1.1875 1.1562 0.0276-0.80532-0.057-0.82595 0.21875-2.3438 4e-3 -0.02007-4e-3 -0.01107 0-0.03125 0.84928-1.9983 1.2696-3.7489 0.28125-5.375-0.53748-0.88429-1.5013-1.4238-2.3438-1.5938s-1.5971-0.07379-2.3438 0.09375c-2.3213 0.5209-4.5199 1.9936-6.2812 3.8125-2.8685-2.1686-5.9615-3.64-8.9375-4.1875-3.5467-0.65254-6.8035-0.38223-9.2812 0.8125-1.2389 0.59736-2.3692 1.4606-2.9688 2.7812s-0.4288 2.9858 0.3125 4.3125c0.88647 1.5865 2.6387 2.9422 4.9062 4.2188-0.42823 0.65262-0.66068 1.4055-0.5625 2.125 0.05467 0.40064 0.25266 0.70158 0.40625 1.0312-2.3973 0.68152-4.4758 1.4581-6 2.4375-2.5437 1.6345-4.0147 3.9192-4.125 6.2812-0.07689 1.6462 0.51863 3.1112 1.3438 4.4688-0.70271-0.37553-1.4015-0.77868-2.1562-1-3.4048-0.99839-7.1541-0.46099-10.281 1.4688-1.4977-1.5481-3.1385-2.6631-4.9375-2.8125-2.3862-0.19821-4.5413 0.83354-6.3125 2.2812-2.9073 2.3764-4.912 5.9027-6.25 9.25-3.4416-1.3537-6.9591-1.3261-9.75 0.0625-2.799 1.3926-4.6132 4.3597-4.5625 7.75-2.5713 0.71656-4.7501 1.4947-6.3125 2.3438-1.9218 1.0443-3.4262 2.0802-3.75 4.125-0.1619 1.0224 0.2793 2.186 0.9375 2.875 0.42736 0.44738 0.9793 0.63028 1.5 0.875-7.4995 3.455-13.686 6.58-17.812 9.2188-5.3365 3.4126-8.3054 6.1322-9.5938 9-0.64416 1.4339-0.77784 2.9963-0.375 4.3438s1.2702 2.3962 2.25 3.2188c1.9596 1.6451 4.484 2.5989 6.875 3.375 1.6267 0.52804 3.3111 1.2063 5.125 1.5312 1.4032 0.25137 3.0055-0.0469 4.4375-0.84375 5.3056 1.0842 8.4945 1.1294 10.75-0.125 0.33814-0.18807 0.57066-0.44789 0.84375-0.6875 0.32624 0.66183 0.56153 1.314 1.125 1.9375 0.84475 0.93482 2.194 1.5964 3.6875 1.7188-0.58071 1.1295-0.86199 2.4949-0.375 3.6875 0.61183 1.4983 1.8182 2.5388 3.4062 3.5625 0.50389 0.32485 1.3984 0.61954 2 0.9375-0.59747 0.83944-0.98102 1.8615-0.8125 2.6875-0.14708 0.0876-0.34894 0.10858-0.46875 0.21875-0.31038 0.2854-0.29548 0.53213-0.46875 0.8125-4.444-0.19887-8.8831 0.47397-12.75 1.75-4.3514 1.4359-7.9682 3.4004-10.281 5.5312-1.1565 1.0654-2.1212 2.1617-2.375 3.75-0.1269 0.79417 0.05152 1.7526 0.53125 2.5 0.47973 0.74736 1.1663 1.2358 1.9062 1.5625 0.16661 0.0736 0.38707 0.0928 0.5625 0.15625-1.7422 0.91045-3.3412 1.8484-4.5938 2.875-1.0009 0.8203-1.8502 1.6827-2.4375 2.7188s-0.91772 2.373-0.53125 3.6562 1.3607 2.2556 2.5312 2.9688c0.57805 0.3522 1.462 0.57088 2.1875 0.84375-1.011 2.9851-0.95298 5.9001 0.65625 8.2188 1.6569 2.3874 4.6829 3.7865 8.4062 4.8125-0.74642 2.4077-1.356 4.7696-1.1562 7 0.12799 1.4292 0.70344 2.9512 2 3.9375 0.27556 0.20961 0.62878 0.28967 0.9375 0.4375-0.35346 0.83355-0.54246 1.7245-0.40625 2.6875 0.21579 1.5255 1.1896 2.8309 2.4688 4.0938-1.686 1.1595-3.1739 2.571-3.9375 4.5312-1.0793 2.7704-0.51523 6.1474 1.7812 9.5-0.24574 1.9482-0.23532 3.6617 0.28125 5.0938 0.59928 1.6613 1.9254 2.9465 3.4375 3.4688 1.2873 0.44462 2.5929 0.43383 3.9062 0.1875-0.56548 3.0522 0.05597 6.2415 2.125 8.7188 3.2757 3.922 9.5064 5.8271 17.469 3.8438 4.1785 1.633 8.3611 2.776 12.469 2.3125 3.1664-0.35731 6.1931-1.7586 8.8125-4.3438 1.4212 2.9287 3.9049 5.0978 6.9375 5.75 3.2825 0.70592 6.9421-0.31658 10.125-3.0938 0.72894 0.77571 1.6186 1.3661 2.625 1.625 1.3744 0.35361 3.0024 0.21958 4.3438-0.78125 0.48237-0.35991 0.79502-0.90332 1.125-1.4375 3.4087 2.257 6.8036 2.99 9.625 2.125 1.7551-0.53809 3.2453-1.7261 4.0625-3.3438 0.31174-0.61711 0.4183-1.3328 0.53125-2.0312 0.0218 7e-3 0.0407 0.0244 0.0625 0.0312 0.0894 1.1436 0.15584 2.3 0.46875 3.4375 0.44646 1.623 1.3303 3.3227 3.0312 4.3125s3.8608 1.1054 6.4375 0.5625c1.6452-0.34666 3.6326-1.0858 5.8125-2.0312 0.0985 1.0557 0.41815 2.0794 1.0625 2.8438 1.5464 1.8344 3.8526 2.2289 6.0938 2.2188 2.2411-0.0102 4.623-0.51244 6.75-1.2812 0.57986-0.2096 1.0883-0.4731 1.625-0.71875 0.13064 1.4441 0.40062 2.6935 0.90625 3.75 0.92111 1.9247 3.0375 3.1068 4.9375 2.9688 3.257-0.23656 6.1894-2.5585 9.25-5.1875 2.3894 2.0731 4.726 4.1738 6.8125 6.5 1.5901 1.7728 3.1373 5.6352 4.4062 9.625 1.1772 3.7014 2.1729 7.3806 3.5938 10.156l-1.1562 20.625c-1.441 2.1773-2.1218 4.0041-2.5625 5.4375-6.9585 5.0426-8.1527 8.9503-10.656 13.281-0.0457 0.0432-0.12462 0.13261-0.28125 0.21875-0.35188 0.19351-0.93214 0.42423-1.5625 0.6875-1.2607 0.52655-2.7774 1.1052-4.0938 1.8438-1.3606 0.7634-2.1401 1.5571-2.8438 2.125s-1.4528 1.0823-3.25 1.7188c-2.8802 1.02-4.7869 2.0644-6.375 3.125-6.9644-10.663-12.353-18.771-15.719-23.594-1.8124-2.5971-3.1558-4.4514-4.125-5.6875-0.48463-0.61806-0.86562-1.0679-1.2188-1.4375-0.17656-0.1848-0.35593-0.34993-0.59375-0.53125s-0.42801-0.65843-1.6875-0.53125c-0.4317 0.0436-0.99072 0.29309-1.3438 0.65625s-0.49689 0.755-0.5625 1.0312c-0.13122 0.5525-0.0376 0.78856 0 1 0.0752 0.42288 0.15675 0.68952 0.28125 1 0.249 0.62096 0.60833 1.3484 1.0938 2.2812 0.97084 1.8657 2.4399 4.4417 4.25 7.5 1.8295 3.0911 4.6092 7.306 7 11.094-0.50373 8e-3 -1.335 0.20651-1.8125 0.8125-0.51095 0.64841-0.4937 1.2684-0.46875 1.625 0.0499 0.71324 0.23782 0.98698 0.40625 1.3438s0.36283 0.71053 0.59375 1.0938c0.42541 0.70599 0.96889 1.3063 1.5625 2.1562-0.0119 1e-3 -0.0192-1e-3 -0.0312 0-0.78152 0.077-1.8058 0.62463-2.25 1.4375-0.39449 0.72194-0.39555 1.3598-0.34375 1.9688-3.7673-1.7534-8.0506-3.9405-10.656-5.125-0.45183-0.20539-0.84793-0.36431-1.2188-0.5s-0.50235-0.33524-1.4375-0.28125c-0.23379 0.0135-0.59362 0.0294-1.0312 0.28125-0.43763 0.25189-0.90601 0.87473-1.0312 1.4375-0.25049 1.1255 0.17692 1.4917 0.34375 1.75 0.33366 0.51653 0.59711 0.72617 0.96875 1.0625 0.84306 0.76295 3.9376 2.9897 6.0938 4.5938-0.88235 0.13004-1.6288 0.19142-2.6562 0.375-3.936 0.70324-8.9208 1.7837-14.344 3.0625-0.0113 3e-3 -0.0199-3e-3 -0.0312 0-15.728 3.4921-36.797 8.7632-54.094 13.219-8.6532 2.229-16.358 4.2455-21.969 5.75-2.8054 0.75223-5.0668 1.3606-6.6875 1.8125-0.81033 0.22597-1.4664 0.42343-1.9375 0.5625-0.23554 0.0695-0.43474 0.13647-0.59375 0.1875-0.15901 0.051-0.14447-0.0241-0.5625 0.1875a2.1215 2.1215 0 0 0 -0.125 3.7188c0.89178 0.53861 1.2277 1.0986 1.6562 2.0312s0.82731 2.2518 1.7812 3.625 2.5561 2.629 4.875 3.3125c2.2412 0.66058 5.1944 0.88382 9.3125 0.65625 1.8468 0.43607 3.5427 1.5123 6.1875 2.125 1.0738 0.24878 2.3797 0.25578 3.7188 0.1875a2.1215 2.1215 0 0 0 1.3438 1.8125c20.973 8.1298 28.13 12.58 79.406 17.688 2.161 2.042 4.4132 4.6282 8.1875 6.0938 4.0483 1.5719 9.4893 1.586 17.719-1.125a2.1215 2.1215 0 0 0 0.15625 -0.0312c6.1059-2.502 13.035-3.0073 19.906-7.4688a2.1215 2.1215 0 0 0 3.75 1.5312c0.20854-0.24821 0.39172-0.37837 0.59375-0.59375-0.4591 2.4744-0.19613 5.1094 1.3438 7.5a2.1215 2.1215 0 0 0 1.7812 0.96875c29.686-0.11596 54.053 15.148 108.62-0.84375 8.1606 0.27426 17.281 1.4538 24.938 0.5 3.866-0.48162 7.4316-1.522 10.219-3.75s4.6222-5.6477 5-10.125a2.1215 2.1215 0 0 0 -0.1875 -1.0312l-2.0939-4.875c6.9426-0.87379 12.035 1.0173 16 5.9688a2.1215 2.1215 0 0 0 1.7812 0.8125c16.823-0.9319 25.371-5.605 29.5-11.969s3.6514-13.751 3.9375-19.344a2.1215 2.1215 0 0 0 -1.4375 -2.0938l-33.656-11.688c-3.0626-2.482-7.1298-3.5733-11.25-4.375-2.2265-0.43324-4.1202-0.82873-6.25-1.1875 0.19873-0.11149 0.46665-0.23496 0.65625-0.34375 0.8854-0.50803 1.6726-0.9738 2.3125-1.4062s1.0736-0.68763 1.625-1.4062c0.13785-0.17966 0.30845-0.37571 0.4375-0.8125s0.13578-1.2806-0.28125-1.9062-0.96503-0.84495-1.3125-0.9375c-0.34747-0.0926-0.60047-0.0976-0.8125-0.0937-0.84811 0.0155-1.4696 0.21572-2.5312 0.53125s-3.6302 1.346-5.4062 2c0.0357-0.32472 0.0935-0.67481-0.0937-1.1562-0.21722-0.55859-0.81071-1.0356-1.3438-1.2812 3.8298-4.2117 8.3542-9.1853 10.312-11.406 1.5468-1.7543 2.5487-2.9075 3.125-3.6562 0.14408-0.18718 0.2591-0.35354 0.375-0.53125s0.26229-0.12749 0.40625-1.0312c0.036-0.22594 0.0939-0.58056-0.0937-1.0938-0.18763-0.51319-0.78683-1.0963-1.3125-1.2812-1.0513-0.36993-1.3486-0.0277-1.5625 0.0625-0.42783 0.18034-0.52735 0.28728-0.6875 0.40625-1.2812 0.95175-3.5795 3.1976-7.375 6.8438-3.5762 3.4354-8.3954 8.0878-13.75 13.25-1.855-0.50938-14.851-4.0601-22.656-5.0938-2.764-0.36602-5.8562-0.72477-9-1.0312-1.6534-2.1652-3.7678-4.8062-5.7188-6.5625-2.3285-2.0961-5.0318-3.3291-7.4375-4.5625s-4.4784-2.4581-5.8125-4.1562c-1.5103-1.9224-3.7849-3.0402-6.1875-4-1.8822-0.75189-3.7094-1.2091-5.4375-1.6562-0.53641-6.2508-1.061-12.713-1.4062-18.156-0.37204-5.8653-0.52049-10.72-0.375-12.625 0.44678-5.8501 2.6247-15.544 5.1875-25.406 2.4049 0.0494 5.3986-0.80518 9.1562-2.6562 5.0974 0.23 9.0471-1.8138 11.656-4.8125-0.21339 0.87793-0.3514 1.7805-0.25 2.7188 0.16875 1.5614 0.95021 3.1257 2.25 4.3438 2.4942 2.3374 6.7682 3.7201 13.531 4.7188 2.9494 3.364 5.8668 5.3853 8.8438 5.9062 3.1877 0.55785 6.1488-0.58788 8.5-2.4375 4.1986-3.3029 6.9646-8.6681 9.0312-13.219 9.1355 3.2008 16.64 1.6538 21.438-2.0312 4.537-3.4848 6.7968-8.446 6.0938-12.75 6.1736-5.0056 15.457-9.0739 22.219-14.781 3.524-2.9745 6.4049-6.521 7.4375-11.031 0.92652-4.0469 0.17768-8.715-2.375-14 9.2567-5.2212 13.895-12.21 13.531-18.219-0.19399-3.2085-2.0528-6.131-5.0938-7.4062-0.97627-0.40939-2.0688-0.61805-3.2188-0.71875 0.98137-1.1067 2.0233-2.1791 2.7812-3.4062 2.2207-3.5955 3.4967-7.5466 3.2812-11.156s-2.4317-7.0608-6.375-8c-2.2405-0.53364-4.9334-0.30438-8.0625 0.5625 0.10318-0.24757 0.1254-0.5419 0.1875-0.8125 1.7734-1.6465 3.1717-3.2204 4-4.9062 0.44888-0.91361 0.74991-1.8979 0.6875-2.9688-0.0624-1.0708-0.56144-2.1686-1.3438-2.9375-1.5646-1.5379-3.8022-2.0858-6.9062-2.3438-1.839-0.15281-4.1446-0.10781-6.7188 0.0312 1.6077-2.5606 2.2263-5.5002 1.125-8.25-0.92244-2.3032-3.0046-4.1926-5.9375-5.125-0.89661-0.28505-2.0367-0.34608-3.0938-0.46875 1.3697-1.4718 2.2075-3.1779 2.25-4.9062 0.0707-2.8755-1.6856-5.1033-3.7812-7.0625 4.5524-3.9589 8.3619-8.6395 8.4375-13.906 0.0427-2.9783-1.3628-5.9717-4.2188-8.2812-2.2236-1.7982-5.5892-3.2053-9.6562-4.4062 1.8611-1.9987 3.4086-3.8781 4.2812-5.625 1.2388-2.4799 1.4051-5.2637-0.15625-7.2188s-4.0845-2.7818-7.25-3.2188c-1.0179-0.14052-2.2494-0.1379-3.4375-0.1875 0.27446-0.21723 0.53847-0.36575 0.8125-0.59375 3.0133-2.5072 5.8424-5.571 6.9062-9.0938 0.53194-1.7614 0.53915-3.7625-0.375-5.5312s-2.6294-3.1327-4.9688-4.0938c-4.412-1.8125-11.428-2.4417-22.281-1.6875-0.17079-0.92685-0.27717-2.0008-0.59375-2.7188-0.55296-1.2541-1.5671-2.37-2.9375-2.6875s-2.56 0.13493-3.5312 0.71875-1.8444 1.3724-2.7188 2.25c-1.372 1.3772-2.7206 3.0374-4.0312 4.625-0.11431-0.68868-0.25329-1.3859-0.625-2.0312-0.96122-1.669-2.7712-2.7886-5.0938-3.3438-0.87744-0.20974-1.9276-0.26673-3-0.34375 0.31538-0.58612 0.5691-1.1859 0.71875-1.8125 0.6289-2.6335-0.21589-5.5527-2.4688-7.2812s-5.6698-2.0385-9.5-0.5c-1.0506 0.422-2.1373 1.0148-3.2812 1.7188-0.0391-0.1183 0.0303-0.18834-0.0312-0.3125-0.36375-0.73417-1.1981-1.2578-1.8125-1.375-1.2288-0.23432-1.8755 0.12142-2.7188 0.46875s-1.809 0.86031-2.9062 1.5c-1.5646 0.91211-3.7906 2.4739-5.9688 3.9688-0.92455-1.8786-2.4047-3.3532-4.125-4.2812-2.594-1.3994-5.6207-1.8234-8.3438-1.25s-5.4011 2.4663-5.9062 5.5625c-0.21744 1.3327 0.0104 2.7824 0.53125 4.2812-1.0998-0.73655-2.2005-1.4567-3.4688-2.25-0.48378-1.5767-0.95078-3.098-1.5938-4.3438-0.76394-1.4802-1.695-2.8279-3.3125-3.5s-3.5966-0.12755-5.0312 1.0625c-0.21524 0.17854-0.41487 0.48151-0.625 0.6875-0.11289-0.27453-0.0947-0.61829-0.25-0.875-0.53846-0.89-1.4724-1.5722-2.4375-1.8125s-1.8838-0.11349-2.6875 0.125c-2.3338 0.69257-4.2721 2.2854-5.9375 3.8438-0.61964-0.72055-1.281-1.3264-2.0312-1.7812-1.3888-0.8419-2.9969-1.0753-4.5-0.875-0.47903 0.06383-0.96452 0.31296-1.4375 0.4375 0.28879-0.65156 0.51882-1.3101 0.375-2.1562-0.19436-1.1435-1.2418-2.102-2.0938-2.4062-1.3132-0.46888-2.5508-0.37076-3.875-0.15625 0.25746-0.66211 0.49044-1.3428 0.53125-2.0938 0.0974-1.7918-0.8579-3.6984-2.5625-4.875-1.5525-1.0717-3.7292-1.7225-6.5-2.0625-2.765-2.654-5.8513-3.6473-8.5625-2.9062-1.3289 0.36323-2.4868 1.06-3.5625 1.875-0.22125-1.3619-0.60156-2.6365-1.2812-3.75-1.4373-2.3548-4.2206-3.6718-7.4375-3.5938zm22.938 105.97c0.97097 0.75907 2.2582 1.5688 3.8125 2.3125-0.12133 0.10384-0.32303 0.1738-0.4375 0.28125-0.85539 0.80295-1.5152 1.9159-1.5938 3.25-0.73869-0.78124-1.6005-1.4156-2.5312-1.7812 0.69439-1.1319 1.0095-2.549 0.75-4.0625zm-51.875 21.25c0.27853 0.50962 0.56162 0.99864 0.875 1.4688-0.32625-0.24517-0.86672-0.50818-1.25-0.75 0.16816-0.21916 0.25551-0.4734 0.375-0.71875zm61.406 29.344c0.95005 0.32712 1.9505 0.55549 2.9688 0.78125-0.23801 1.8505-0.26389 3.7471-0.125 5.6875a2.1215 2.1215 0 0 0 2.625 1.9062c0.73756-0.18106 0.75239-0.10326 1.2188-0.15625-0.34447 0.49333-0.86282 1.124-1.3438 1.7188l-6.9688-1.7188c-0.0502-0.21013-0.0191-0.42098-0.0937-0.625 0.25655-0.18455 0.53979-0.32859 0.78125-0.53125 0.81078-0.6805 1.7368-1.5047 1.875-3.0312 0.0691-0.76329-0.20112-1.6133-0.625-2.2188-0.24964-0.35655-0.58658-0.58712-0.90625-0.84375 0.2542-0.29042 0.44475-0.62518 0.59375-0.96875zm-92.625 38.312c0.45634-0.0478 1.5949 0.0934 3.2812 0.71875a2.1215 2.1215 0 0 0 0.0937 0.0312c2.2934 0.7385 3.9162 1.0104 5.375 1.0312l0.0937 0.90625c-2.5181 0.0161-5.179 0.39422-8.0312 1.375-0.19581-0.14881-0.3959-0.29316-0.59375-0.4375-0.38994-1.4671-0.61414-2.8242-0.53125-3.3125 0.0485-0.28566 0.0862-0.30445 0.0625-0.28125s-0.0472-1.3e-4 0.25-0.0312zm162.34 30.656c-0.60499 1.1496-1.3858 2.3977-2.3125 3.7188-0.6469 0.92214-1.3365 1.8851-2 2.8438 0.50991-2.1583 0.59342-4.3398 0.21875-6.4062 1.348-0.0532 2.7015-0.0875 4.0938-0.15625z"/>
  <path d="m440 202.12-14.281-6.5625-82.156-8.1875-101.78 77.844-12.125 64.656c-13.892 5.5338-36.747 9.7325-13.594 20.688l75.719 18.594c6.4286 4.1667-4.7904 24.939 19.281 12.5-4.8676 9.8533 11.244 6.8702 14.656 2.8438-0.83097 14.697 7.9814 7.4516 16.062 0l73.938-5.7188c5.4486 1.7766 5.4783 9.5823 18.562 2.875 12.728 1.007 16.348-13.078 12.156-19.281l36-45h-42.438v-115.25zm-70.719 38.438c6.0714 5.7143 13.219 1.4375 13.219 1.4375l13.219 16.062s-19.558 8.2374-19.281 6.4375c2.1429-13.929-4.2902-13.554-10.719-12.125 4.3274-1.213 11.561-2.5166 3.5625-11.812zm-46.438 17.5c-0.37819 10.148 6.9414 13.882 11.812 19.656l-19.656 3.5625c2.9727-4.1348 18.109-6.532 3.2188-13.219 7.6244-1.1895-1.3416-9.277-3.9375-3.9062-3.2216-6.7568 3.6524-5.6615 8.5625-6.0938zm20 30.375 25.375 25.344c9.2857 3.2143 15.366-7.5 11.438-10 3.5269-2.1354 6.4566-4.2708-2.1562-6.4062 8.9182 0.15871 3.5097-4.8923 2.8438-8.2188l16.438 4.625c-7.9712-2.3775-7.9313 3.2562-7.5 9.2812 11.231-2.7569-0.97361 7.3358-3.5625 12.156l-62.5 29.656c-10.815-1.0073-18.998-9.0337-32.5-2.875-2.6243-6.8562-2.3715-10.952 5-8.2188 10.887 3.5058 6.4527-2.4169 5.7188-6.0625l30-11.781-2.1562-20.375 13.562-7.125z" fill="#052"/>
  <path d="m344.88 192-99.031 75.719-11.812 62.969a4.4626 4.4626 0 0 1 -2.7188 3.3438c-7.3672 2.9346-16.7 5.6971-19.844 7.8438-0.28417 0.19403-0.18517 0.16712-0.34375 0.3125 0.5834 0.56162 2.3528 2.1196 6.5312 4.1562l75.188 18.469a4.4626 4.4626 0 0 1 1.375 0.59375c3.5242 2.2842 4.0785 6.0647 4.3438 8.7812s0.30531 5.2159 0.59375 6.4062c0.10885 0.44919 0.11233 0.47045 0.125 0.5 2.1e-4 4.9e-4 0.0311-4e-4 0.0312 0 0.71939 0.0687 4.0226-0.47905 9.6875-3.4062a4.4626 4.4626 0 0 1 6.0625 5.9375c-0.0523 0.10582-0.0216 0.063-0.0625 0.15625 0.1134 9e-3 0.11463 0.0319 0.25 0.0312 1.2538-6e-3 3.0644-0.34481 4.5312-0.875s2.6223-1.4199 2.5312-1.3125a4.4626 4.4626 0 0 1 7.875 3.125c-0.0775 1.3709-1e-3 2.273 0.0937 3.0312 1.7177-0.99007 5.103-3.459 8.4688-6.5625a4.4626 4.4626 0 0 1 2.6875 -1.1562l73.938-5.7188a4.4626 4.4626 0 0 1 1.7188 0.1875c2.2766 0.74233 3.8688 2.0717 4.9688 3.0625s1.8218 1.6556 2.3125 1.9375 0.73158 0.41846 1.8438 0.3125 3.0735-0.64 6.0312-2.1562a4.4626 4.4626 0 0 1 2.375 -0.46875c4.7003 0.37185 6.6924-1.5746 8.0312-4.4062s0.97878-6.6278 0.0937-7.9375a4.4626 4.4626 0 0 1 0.21875 -5.2812l30.188-37.75h-33.156a4.4626 4.4626 0 0 1 -4.4688 -4.4688v-112.38l-11.031-5.0937-79.625-7.9062zm24.5 44.094a4.4626 4.4626 0 0 1 2.9688 1.2188c1.9948 1.8774 3.604 1.9126 5.2188 1.6875s2.6562-0.84375 2.6562-0.84375a4.4626 4.4626 0 0 1 5.7188 1l13.219 16.062a4.4626 4.4626 0 0 1 -1.7188 6.9688s-4.9138 2.063-9.875 3.9375c-2.4806 0.93726-4.9685 1.8186-7 2.4062-1.0158 0.29384-1.8402 0.54513-2.9062 0.65625-0.53301 0.0556-1.0902 0.18982-2.3438-0.1875-0.62677-0.18866-1.5706-0.58905-2.375-1.625s-1.0552-2.5941-0.90625-3.5625c0.48515-3.1535 0.42008-5.2756 0.1875-6.375s-0.39917-1.0362-0.4375-1.0625c-0.0767-0.0525-2.1064-0.3201-5.0938 0.34375a4.4626 4.4626 0 0 1 -2.1875 -8.625c2.0823-0.58367 3.4106-1.2569 3.6562-1.25-0.25138-0.59878-0.801-1.6909-2.25-3.375a4.4626 4.4626 0 0 1 3.4688 -7.375zm-46.469 17.5a4.4626 4.4626 0 0 1 4.4062 4.625c-0.14844 3.9834 0.97186 6.0969 2.9375 8.5s4.9723 4.7583 7.8125 8.125a4.4626 4.4626 0 0 1 -2.625 7.25l-19.656 3.5625a4.4626 4.4626 0 0 1 -4.4062 -6.9688c1.6716-2.3251 3.5893-3.1959 5.2812-4.1562 0.85619-0.48597 1.2352-0.75225 1.9062-1.1562-0.6294-0.40037-1.0875-0.77008-2.1562-1.25a4.4626 4.4626 0 0 1 -2.625 -3.5625 4.4626 4.4626 0 0 1 -3.5312 -2.5c-1.0506-2.2034-1.7283-4.4805-0.9375-7s3.1045-4.0094 4.8125-4.5625c3.416-1.1061 6.3666-0.70371 8.3125-0.875a4.4626 4.4626 0 0 1 0.46875 -0.0312zm20 30.375a4.4626 4.4626 0 0 1 3.0938 1.3125l24.469 24.438c2.4094 0.548 3.9375-0.3942 5.0312-1.6875 0.49788-0.58873 0.65094-1.0782 0.75-1.4062a4.4626 4.4626 0 0 1 -0.4375 -5.125 4.4626 4.4626 0 0 1 1.2812 -8.5625c-0.39848-0.79657-0.85648-1.565-1.125-2.9062a4.4626 4.4626 0 0 1 5.5938 -5.1562l16.438 4.625-1.2188 4.2812-1.2812 4.2812c-1.1378-0.33936-1.3674-0.28531-1.625-0.28125-8e-3 0.0534-0.0189 0.48998-0.0312 0.59375 1.3104 0.23756 2.7718 0.75409 3.7812 2.375 1.3344 2.1428 0.76009 4.1705 0.3125 5.3125s-1.0236 1.9638-1.625 2.8125c-1.2028 1.6974-2.6683 3.3635-3.9688 4.9062s-2.4246 3.073-2.6875 3.5625a4.4626 4.4626 0 0 1 -2.0313 1.9062l-62.5 29.656a4.4626 4.4626 0 0 1 -2.3125 0.40625c-6.3937-0.59552-11.434-3.0266-16-4.25s-8.4744-1.6344-14.25 1a4.4626 4.4626 0 0 1 -6 -2.4688c-1.4353-3.7498-2.9736-6.8751-1.1875-11.062 0.89305-2.0937 3.4489-3.8034 5.625-4.0312 2.1108-0.22104 3.9842 0.26148 6.0938 1.0312 0.18416 0.0593 0.10869 0.0113 0.28125 0.0625-0.10721-0.37116-0.22565-0.56861-0.3125-1a4.4626 4.4626 0 0 1 2.75 -5.0312l26.844-10.531-1.8125-17a4.4626 4.4626 0 0 1 2.375 -4.4062l13.562-7.125a4.4626 4.4626 0 0 1 2.125 -0.53125z" fill="#003a17"/>
  <path d="m440 202.12v115.25h42.438l14-17.5c21.19-8.2143 74.086-38.364 27.844-33.219 8.2021-4.5641 7.774-17.522-10.344-13.938 13.202-5.119 7.8165-12.015 1.0625-16.062l-75-34.531z" fill="#00943b"/>
  <path d="m497.14 270.93c5.3334 0.66103 21.205-3.017 12.143 3.5714 38.13-4.0804 29.859 2.4729 23.571 8.5714 26.984-13.772 22.006 13.676 7.8572 20.357 17.01-6.5757 19.807 12.063-0.35715 22.143 12.689 23.018-13.681 28.323-26.786 39.643 2.4856 6.4877-7.4484 21.16-26.429 13.214-4.1178 9.4186-12.424 24.72-24.286 10.357-28.395-3.9112-7.1425-16.333-5.7143-25.357-14.796 0.74776-31.023 1.933-12.5-7.5-11.072 1.4169-21.487 1.7214-26.071-7.8571-27.028-8.7711-19.441-22.262-27.857-33.571 4.9395-7.1872 8.5271-20.683 16.071-15.714l-0.35714-21.786z" fill="#00ac45"/>
  <path transform="translate(180.43 140.28)" d="m238.22 137.5-10.594 0.71875 0.21875 14.062c2.8464-5.035 5.9609-8.7913 10.531-5.7812l-0.15625-9zm-15.094 21.469c-0.38772 0.0194-0.74271 0.1363-1.125 0.3125-1.0194 0.46988-2.1913 1.6918-3.3438 3.4062-2.1402 3.1839-4.1516 7.8122-6.5312 11.531 3.8897 5.8003 4.3024 11.842 6.5625 17.094 2.3824 5.5365 6.6927 10.671 19.938 14.969a1.5901 1.5901 0 0 1 0.9375 0.8125c2.0868 4.3599 5.2697 6.3088 9.5 7.1875s9.482 0.51468 14.969-0.1875a1.5901 1.5901 0 0 1 0.90625 2.9688c-4.1585 2.1177-6.2967 3.7278-7 4.4688 0.16344 0.0713 0.0733 0.0587 0.375 0.125 2.9892 0.65707 10.902 0.28079 18.312-0.0937a1.5901 1.5901 0 0 1 1.6562 1.8438c-0.44356 2.8025-2.1944 5.3499-3.9688 7.875s-3.6211 5.0101-4.4688 7.0625c-0.42382 1.0262-0.57587 1.9118-0.5 2.625 0.0759 0.71319 0.33875 1.3227 1.0938 2.0312 1.51 1.4172 5.2279 2.9789 12.188 3.9375a1.5901 1.5901 0 0 1 1 0.5625c2.819 3.4136 5.2746 4.8367 7.2812 5.1875s3.7893-0.2707 5.5938-1.6875c2.4459-1.9204 4.6305-5.3 6.4375-8.7188-2.587-0.35456-5.4237-2.0562-8.5-5.7812-28.395-3.9112-7.147-16.351-5.7188-25.375-14.796 0.74776-31.023 1.933-12.5-7.5-11.072 1.4169-21.478 1.7348-26.062-7.8438-27.028-8.7711-19.428-22.253-27.844-33.562 0.64097-0.93265 1.2367-2.0028 1.8438-3.0938-0.36722-0.12503-0.7178-0.17194-1.0312-0.15625zm136.44 44.5c-5.0328 3.0449-10.362 5.9442-14.406 9.4375 0.21627 0.56448 0.34455 1.2069 0.375 1.875 3.5112-2.0953 6.8953-4.19 9.625-6.5 1.7975-1.5211 3.2971-3.0948 4.4062-4.8125zm-40.844 22.656c-1.6729 3.8263-4.0183 8.6464-7.0312 12.031 6.839 1.7335 11.908 0.14611 15.312-2.4688 2.7881-2.1415 4.327-5.0583 4.75-7.4062-3.6755 0.47514-8.047-0.0698-13.031-2.1562z" fill="#008033"/>
  <path d="m416.69 443.49c0.0596-0.0497 12.258 2.0554 15.405 6.0609 3.339 4.2501 9.4938 5.349 13.511 8.9651 3.044 2.7402 7.8287 9.4702 7.8287 9.4702l-23.107-0.63134-16.541-14.142z" fill="#917c6f"/>
  <path d="m423.75 451.99c3.5487 1.894 5.7385 5.7878 9.25 7.75 2.9906 1.6711 6.909 1.3356 9.75 3.25 1.8627 1.2552 4.375 5.125 4.375 5.125l-23.25 0.25-7-18.375s4.7694 0.87626 6.875 2z" fill="#6c5d53"/>
  <path d="m358.57 433.08c-5.5785 4.8824-6.0332 7.8033-6.875 10.446-7.4555 5.1802-7.9548 8.4567-10.804 13.304-0.60928 1.0366-4.4629 2.1252-6.6168 3.3336-2.1968 1.2325-2.4441 2.5802-6.419 3.9878-9.9458 3.522-9.1926 7.054-12.143 9.1071l45.893-4.1071z" fill="#6c5d53"/>
  <path d="m195.93 498.79c1.4542-0.73601 105.35-28.207 108-25.179l50-11.25s71.949-0.42226 107.5 4.2857c7.9878 1.0578 23.571 5.3571 23.571 5.3571 23.099-22.253 34.142-33.484 2.3571 1.25 11.419-7.2629 5.628-0.56835 4.3743 1.2497 21.021-8.4418 12.095-2.774 3.5542 1.3574 7.2377 1.9695 17.807 1.9911 22.929 6.5l33.929 11.786c-0.59058 11.543 1.533 27.46-31.429 29.286-4.9105-6.1314-11.763-8.3781-20.714-6.4286l3.2143 7.5c-1.3616 16.134-21.474 11.955-38.214 11.429-54.353 16.041-77.952 0.73809-108.43 0.85714-2.9906-4.6429-0.81798-9.2857 3.5714-13.929-2.7372 2.5198-5.6507 2.8844-8.9286 6.7857l0.71428-5c-7.6749 7.2464-15.703 7.133-23.571 10.357-15.932 5.2486-19.363-0.53423-24.286-5-51.986-5.1347-58.381-9.4286-79.571-17.643l4.2857-3.5714c-8.9791 3.9013-11.381 0.2862-16.071-0.71428-16.822 1.0411-11.483-6.0828-16.786-9.2857z" fill="#0a4"/>
  <path d="m297.66 435.62c-0.91174 0.0921 8.732 16.607 19.125 32.094-17.919-17.8-3.1839 1.0491-1.4375 3.2188-6.5308-4.9582-9.4097-5.515-6.0625 1.4375-8.2574-2.8688-29.913-16.352-5.5312 1.125-2.9589-1.4457-31.466 5.7227-52.438 11.406 2.3803 2.7546 4.2309 6.9364 15.188 2.2188 9.4583 0.82104 9.441-1.5187 8.25-4.25 9.1705 6.9773 11.511-0.0684 9.75-2.75 2.9654 4.6776 5.2436 13.815 10.75 2 1.6854 5.794 5.8069 0.90699 6.75-2 2.6439 9.1686 9.9462 0.8683 15 1l40.5-18.75c-0.77555 2e-3 -3.5625 0-3.5625 0-10.347-1.7734-22.385 3.9566-33.594 6.0625-15.754-24.195-22.022-32.88-22.688-32.812z" fill="#008033"/>
  <path d="m355.71 363.43c0.11478 33.929 1.5176 67.857-2.8572 101.79 24.719 7.879 46.203 13.661 69.643 4.2857 0 0-4.968-48.923-4.2857-57.857 1.3353-17.484 16.071-62.857 16.071-62.857 10.758-18.099 21.98-26.781 37.5-32.5-2.3319 0.96634-4.6686 1.966-6.0714-3.5714-11.021 2.0938 1.2087-9.1219 6.7857-11.429 0 0-23.108 13.576-37.143 19.643-10.627 4.5938-2.5-34.643-2.5-34.643l-6.7857 3.5714-5-0.71428s-5 34.286-6.4286 37.5c-1.4286 3.2143-18.929 33.214-23.929 35.357s-35 1.4286-35 1.4286z" fill="#917c6f"/>
  <path d="m471.47 301.78-12.719 7.5938s-4.877 3.4501-3.9062 5.4688c0.8953 1.8617 6.1875 0.375 6.1875 0.375 0.59218 1.0175 0.50865 2.2687 5.4688 1.5625-15.963 3.8006-23.313 16.705-27.906 24.406 8.7097-9.5692 17.369-20.832 36.031-24.781-7.2356 0.71051-10.115-0.19307-6.5294-6.1535-3.1388-0.0858-11.023 1.7886 3.5607-7.9403z" fill="#6c5d53"/>
  <path d="m425 287-5 5.7188-1.25 14.656c-0.50464 4.8532-3.4735 20.222-3.942 20.866-4.1737 5.7371-10.152 16.978-10.152 16.978l-46.438 25.719-4.875 87.312 21.312 1.9688s0.71429-16.406 0.0523-24.961c-0.28511-3.6846-1.1461-11.633-1.1461-11.633l-0.53125 10.688-1.3024 2.0688 0.9586-20.631c0.28285-6.0875 2.3515-11.738 2.8438-20l1.25 2.875c-0.60982 4.722-1.2678 7.8818-1.2627 11.629l2.2563-4.5203c0.41794-5.8104 0.95495-9.4479 1.1275-15.537 1.3889-2.9965 3.0414-2.9963 4.155-4.1819l-0.0262 5.2757 1.625 0.52237c-0.0496-2.9581 0.66198-5.155 1.6161-7.1093 4.9426-2.3371 6.7742-3.8388 11.918-4.7525l9.6618-20.059 5.6486-14.359c1.0769-0.72693 1.9354 0.1278 3.6984 0.25188l2.0868-4.3201c-2.159-1.1723-2.9762-2.6669-6.8164-1.4764 0 0 6.6989-8.5464 8.5931-14.425 2.0553-6.3789 1.3125-20.062 1.3125-20.062 2.6404 2.29 9.0858 8.2009 6.9062-5.625z" fill="#6c5d53"/>
  <path d="m396.12 368.74c-1.3036 3.4243-3.4217 7.2507-4.75 10.25-9.125 6.4337-10.5 3.9954-19.375 5.125l-12.25-15.5z" fill="#483e37"/>
  <path d="m344.62 297.69a1.2878 1.2878 0 0 0 -0.46875 0.15625l-13.031 7.5a1.2878 1.2878 0 0 0 -0.34375 0.3125 1.2878 1.2878 0 0 0 -0.0312 0.0312 1.2878 1.2878 0 0 0 -0.0625 0l-10 4.5312a1.2878 1.2878 0 0 0 -0.6875 0.8125 1.2878 1.2878 0 0 0 -0.375 0.0625l-8.7188 3.2812a1.2878 1.2878 0 0 0 -0.8125 1.1875 1.2878 1.2878 0 0 0 -1.25 -0.15625l-9.9688 4.1562a1.2878 1.2878 0 0 0 -0.78125 1.3125l0.375 3.9375a1.2878 1.2878 0 0 0 1.0312 1.125l2.0312 0.375 0.21875 7.7812a1.2878 1.2878 0 0 0 0.6875 1.125l0.6875 7.6562a1.2878 1.2878 0 0 0 -0.46875 1.0625l0.53125 9.1875a1.2878 1.2878 0 0 0 1.1875 1.2188l0.59375 9.375a1.2878 1.2878 0 0 0 0 0.1875l-0.125 0.0312a1.2878 1.2878 0 0 0 -1 1.4375l0.53125 3.875a1.2878 1.2878 0 0 0 0 0.0312 1.2878 1.2878 0 0 0 0.0312 0.15625l0.0312 0.125a1.2878 1.2878 0 0 0 1.4688 0.96875l0.5-0.0937h0.0312l47.469 1.5938a1.2878 1.2878 0 0 0 0.0625 0l52.5-1.0625a1.2878 1.2878 0 0 0 1.1875 -0.875s0.4554-1.338 0.71875-2.7812c0.13167-0.72165 0.21749-1.4753 0.15625-2.2188-9e-3 -0.11058-0.0758-0.23095-0.0937-0.34375a1.2878 1.2878 0 0 0 0.25 -0.90625l-0.9687-9.0936a1.2878 1.2878 0 0 0 -0.15625 -0.46875 1.2878 1.2878 0 0 0 0 -0.0312 1.2878 1.2878 0 0 0 0.0937 -0.59375l-0.96875-9v-0.0312a1.2878 1.2878 0 0 0 0.46875 -1.0312l-0.4687-12.531a1.2878 1.2878 0 0 0 0 -0.125 1.2878 1.2878 0 0 0 0 -0.0312 1.2878 1.2878 0 0 0 0.1875 -0.875l-1.0938-7.8438 3.9062-1.2812a1.2878 1.2878 0 0 0 0.875 -1.375l-0.53125-4.6562a1.2878 1.2878 0 0 0 -0.96875 -1.0938l-63.938-16.062a1.2878 1.2878 0 0 0 -0.5 -0.0312z"/>
  <path d="m405.58 330.22-3.6025 1.2721 3.9073 12.158-11.989 2.9946 12.472 7.1497-8.1157 1.3104 9.1565 8.8581-4.2951 1.3065-47.793-3.9775 3.0305-40.785z" fill="#28170b"/>
  <path d="m376.28 332.63 0.3788-2.7779 8.46-1.7678-0.12627-4.9245-44.447-15.026-9.3439-1.2627v4.4194l-7.7024 1.7678-3.4093-0.75762 0.37881 3.6618 0.88388 17.046z" fill="#502d16"/>
  <path d="m303.04 334.06 1.741 0.40178-0.31251 8.8839 1.5625 0.13393 7.7232 21.473 36.964-9.1964-3.5714-0.35714-2.3661-11.518 5.4018-1.0714-2.9464-0.35714-2.0536-10.223 4.6429-1.2054-3.3929-0.44642-1.2054-11.875 4.4196-0.98215-2.8571-0.71428z" fill="#28170b"/>
  <path d="m310.37 320.38 65.912 12.248-11.112 4.7982-65.407-12.753zm10.102-4.4194 64.65 12.122-7.1973 4.1669-66.039-12.627zm10.733-4.672 65.534 12.248-10.41 4.4717-64.72-12.679zm1.1177-1.0697 67.194 12.686 9.7704-3.2222-64.643-15z" fill="#241f1c"/>
  <path d="m346.52 317.54-42.857 16.696 0.80357 9.1071 41.964-12.768zm1.1607 25.268-42.054 11.071 0.625 9.7322 40.893-8.2143zm-1.3393-11.607-42.411 12.679 0.53571 9.1964 42.768-10.625zm0.0893-25.893-43.661 20.446 0.26786 8.3036 43.75-17.054z" fill="#784421"/>
  <path d="m402.96 330.29-53.59 18.843-0.45912 7.9707 54.339-13.525zm0.90817 23.626-46.852 8.1672 2.014 5.8178 45.565-4.2999zm-0.32913-9.4606-54.28 12.552 0.53571 6.7973 53.753-10.499zm-1.5522-23.873-53.636 20.446 1.1518 7.7985 53.22-19.2z" fill="#502d16"/>
  <path d="m305.57 369.12 48.352 1.6348 52.505-1.0714-58.75-8.3929z" fill="#28170b"/>
  <path d="m347.32 355.58-42.191 9.5995 0.56743 4.0705 41.981-7.9558z" fill="#784421"/>
  <path d="m309.36 316.59 1.0102 3.7881-10.607 4.2932-0.37881-3.9143zm10.733-4.2932 0.37881 3.6618-8.5863 3.6618-0.50508-4.0406zm11.112-5.4296v4.4194l-9.5964 4.0406-0.37881-3.9143zm0.58194-0.40028 13.036-7.5-0.17857 5.7143-12.321 5.5357z" fill="#784421"/>
  <path d="m351.28 355.86 16.036 2.2728-1.5784 0.50509-15.024-2.506zm-0.29841-13.143 14.375 2.6786-1.3234 0.61511-14.234-3.0781zm-0.26785-11.786 15.536 2.6786-2.09 0.53154-14.317-2.8485zm36.422 29.983 2.8387 0.29421 14.4 2.1333-1.0798 0.3408zm-0.79721-9.4475 2.5-0.44642 13.749 2.252-2.3304 0.82267zm-1.25-11.161 2.2217-0.41136 15.711 3.3523-2.361 0.66253zm16.875-10.642-1.9434 0.75175-50.003-12.185 0.87501-0.96093 51.071 12.411z" fill="#28170b"/>
  <path d="m347.32 355.58 0.35714 5.7143 58.75 8.3929s1.7857-5.3571 0.17857-5.5357c-1.6071-0.17858-59.286-8.5714-59.286-8.5714z" fill="#a05a2c"/>
  <path d="m351.16 306.47-1.4586 1.2842 0.31567 10.48 0.87501-0.96093zm-0.35715 11.518-0.94516 0.89921-0.0153 12.409 0.87119-0.36163zm-0.53571 13.839-1.0561 0.47891 0.58801 10.629 1.1824-0.21557zm1.139 11.661-0.51396 0.0353-0.17857 12.611 0.56626-0.27185z" fill="#502d16"/>
  <path d="m386.34 326.56-2.4107 1.0714 1.1607 12.679 2.2321-0.26786zm3.2143 25.357-2.9464 0.17857 0.53571 8.9286 2.7679 0.17857zm-1.6964-10.268-2.6786 0.44642 1.1607 9.375 2.5-0.44642z" fill="#784421"/>
  <path d="m347.68 342.81 3.2143 0.71429-0.17857 12.232-3.5714-0.35714zm-1.3393-11.607 3.125 0.53571 0.71428 11.071-2.9464-0.35714zm0.17857-13.661 3.2143 0.71429 0.0893 12.768-3.3929-0.44642zm-0.0893-12.232 4.1964 0.98214-0.98214 11.429-2.8571-0.71428z" fill="#a05a2c"/>
  <path d="m351.41 343.49-0.12627 12.374 16.036 2.2728-0.25254-12.122zm-0.42468-0.76831 14.375 2.6786 0.53572-10.714-15.625-2.8571zm-0.26785-11.786 15.536 2.6786-0.53571-12.232-14.911-3.3929zm0.17857-13.661 51.071 12.411-0.26786-9.2857-50.536-13.929zm35.446 9.2857 0.98214 13.482 15.714 3.3929-0.98215-13.482zm1.5178 15.089 0.98215 9.375 13.75 2.3214-0.0893-9.1071zm1.6964 10.268 0.35715 9.2857 14.464 2.1428-0.80357-8.5714z" fill="#a05a2c"/>
  <path d="m344.64 304.68 64.643 15-0.53572-4.6429-63.929-16.071z" fill="#784421"/>
  <path d="m403.87 353.92 2.5829 0.96683 0.95786 9.0754-2.8138-0.35714zm-0.32913-9.4606 1.8623 0.28317 0.96682 9.0511-2.8202-0.48341zm-0.57904-14.166 2.4567 0.84056 0.46811 12.515-2.6352-0.0676zm-0.97319-9.7068 2.4287 1.1084 1.1644 8.5244-2.8571-0.58801z" fill="#a05a2c"/>
  <path d="m346.44 305.31 0.34375 11.688 2.875 0.71875 0.96875-11.438zm4.7188 1.1562-0.25 10.812 12.875 3.125c4.942-0.48389 3.9086-4.6538 2.7188-8.0312 1.6326 5.1579 9.363 12.864 10.856 6.4697 11.721 6.5287 9.5484-0.65497 6.8938-3.2509zm36.844 10.156c0.26221 1.4841-1.334 5.1938 3 3.5-0.0813 2.9557 0.22483 5.4023 1.0625 7.1562l8.8438 2.1562c0.28304-0.0985 0.54619-0.19496 0.84375-0.3125 0.0757 0.0969 0.14435 0.15635 0.21875 0.25l-0.28125-8.9688zm-41.469 0.90625v1.0625c0.97539-0.0258 1.9956 0.42809 3.1875 1.4375v-1.7812zm4.2812 0.46875l-0.0312 3.0312c1.4572 4.621 5.5872 5.3499 4.7543 0.90181 1.4321 2.6054 5.9602 2.3798 5.0941-1.6509zm51.188 2.5938 0.71875 9.0312 2.875 0.59375-1.1875-8.5312zm-9.5938 7.2812c1.3871 2.2534 3.9102 3.0405 8.0312 1.7188zm-45.938 0.40625-0.0312 2.2812 1.125 0.15625c-0.2361-0.79358-0.59876-1.616-1.0938-2.4375zm56.5 2v0.3125c0.94569 1.0916 1.7671 1.9018 2.5 2.4688l-0.0625-1.9375zm-56.625 0.90625 0.40625 5.2188c1.0016-1.1423 1.4257-2.9332 1-4.9688z" fill="#784421"/>
  <path d="m359.64 369.33c-1.0287-1.4596-26.867-13.867-34.668-24.656-13.724-18.98-11.84-51.681-11.84-51.681l-13.135 3.3009c1.7054 16.563 3.9514 29.734 7.9184 46.151 1.236 5.1149-8.6101 5.9627-9.6196 4.6682 0 0-4.7126-4.892-8.8165-7.574-7.8254-5.114-19.482-14.138-19.482-14.138l3.5714 8.75s13.408 7.6369 14.28 13.048c0.50022 3.1029-4.7345 2.6397-6.4233 3.7373-5.071 3.296-17.857 3.2143-17.857 3.2143l1.0714 6.7857c-0.97712-1.4213 24.341-9.9011 39.538 1.7244 14.168 10.838 31.051 19.103 42.962 32.383 6.0145 6.7054 6.9725 27.871 13.036 21.786 31.373-31.485 1.2036-45.032-0.53572-47.5z" fill="#6c5d53"/>
  <path d="m231.07 270.58c-15.351 3.5296-19.491 7.7825-5.3571 13.214-6.5014 0.56584-3.0877 3.335-1.4286 5.7143-3.9286-3.5714-3.9286 0-3.9286 0-18.443-1.9141-39.665 16.456-10 10.357-13.528 3.1887-27.439 11.412-13.929 14.643-3.4524 6.6667-0.47619 10.952 8.9286 12.857-2.818 8.5969-4.3908 16.192 14.286 7.5 2.9812 2.3244 5.621 5.2632 13.214-0.71428-7.0243 5.1729-9.4738 9.4604-1.7857 11.786l36.429-3.9286c5.2176-2.7764 17.476-3.4596 6.4286-11.071 1.3606-3.7736 3.7309-7.778-11.071-7.8571 3.5352-0.89812 18.367-6.3198-6.0714-8.9286 7.9814-0.49309 8.2115-5.2843-1.7857-8.2143 8.9261 2.2714 9.9166-1.5035 8.9286-6.7857-0.61339-3.6447 2.1462-7.8918-11.071-9.2857 16.048-4.0222 8.4645-13.381 11.429-20.357z" fill="#006529"/>
  <path transform="translate(180.43 140.28)" d="m50.312 132.44c-3.3977 0.80892-6.1987 1.6613-8.1875 2.5-2.146 0.90498-3.3096 1.8937-3.4688 2.1875-0.0796 0.1469-0.02789 0.0349 0 0.125s0.18231 0.42279 0.6875 0.875c0.41178 0.3686 1.0922 0.81075 1.9062 1.2812 2.1314-0.25431 4.2971-0.31589 6.4375-0.0937 0 0 0.0089-3.5714 3.9375 0-1.6592-2.3793-5.0638-5.1217 1.4375-5.6875-1.0205-0.39219-1.9174-0.80743-2.75-1.1875zm30.812 7c-0.30652 0.086-0.6118 0.16837-0.9375 0.25 0.31204 0.0329 0.58052 0.0577 0.875 0.0937 0.0093-0.11617 0.05653-0.2247 0.0625-0.34375zm-50.875 12.5c-1.1026 0.25305-2.1862 0.53426-3.2188 0.875-3.899 1.2866-7.2052 3.1755-8.8125 4.6562-0.59533 0.54843-0.66679 0.79793-0.78125 1 0.28853 0.0997 0.81112 0.16968 1.5312 0.21875 1.6474-2.3152 6.0537-4.8045 11.281-6.75zm-7.6562 12.062c-3.6072 1.3914-6.7288 2.9827-8.5 4.4375-0.74433 0.61139-1.2295 1.1938-1.4375 1.5625s-0.16322 0.41454-0.15625 0.4375c7e-3 0.023 0.10228 0.24975 0.71875 0.625s1.6932 0.81524 3.25 1.1875a2.0187 2.0187 0 0 1 1.3125 2.9062c-1.5365 2.9671-1.4959 4.6825-0.5 6.125s3.5784 2.9419 8.0312 3.8438a2.0187 2.0187 0 0 1 1.5 2.5938c-0.69412 2.1175-1.2847 4.1465-1.5 5.6875s0.02689 2.3982 0.21875 2.625 0.77327 0.60543 2.875 0.28125 5.3919-1.4324 9.9688-3.5625a2.0187 2.0187 0 0 1 2.0938 0.25c1.5899 1.2396 2.6714 2.1706 3.9062 2.3438s3.1992-0.24266 6.7812-3.0625l1.25 1.5938 1.1875 1.625c-3.388 2.495-5.4063 4.8937-5.6562 5.8438-0.12497 0.47504-0.13064 0.46272 0.21875 0.84375 0.32087 0.34992 1.3373 0.91309 2.8125 1.4062l35.656-3.8438c1.4503-0.70487 3.0324-1.2692 4.5625-1.7812 1.697-0.56782 3.2848-1.1603 4.125-1.6875 0.40802-0.25602 0.58684-0.47241 0.625-0.53125-0.0686-0.25078-0.98711-1.6415-3.5938-3.4375a2.0187 2.0187 0 0 1 -0.25 -0.1875l-33.688 3.625c-7.1713-2.1691-5.5176-6.0403 0.4375-10.75-6.5576 4.5939-9.0489 1.8666-11.844-0.3125-18.676 8.6922-17.131 1.0969-14.312-7.5-9.4048-1.9048-12.359-6.2083-8.9062-12.875-0.4222-0.10096-0.81801-0.2021-1.1875-0.3125z" fill="#052"/>
  <path d="m280.82 227.07c-4.209-9.9332-17.593-9.5123-16.668-2.5254-1.1591-8.5536-11.134-10.605-16.668-5.8084-6.146-9.019-14.136 1.9268-16.162 8.8388-7.0282-4.1161-14.883-0.27147-13.132 6.566-13.41 3.2436-12.916 8.2036-2.5254 7.5761-44.493 19.202-34.512 25.249-25.319 28.233 3.442 1.1173 6.5658 2.6594 8.6517 0.5561 11.282 2.4424 11.264-0.76571 12.122-3.5355 1.613 3.5866 1.6055 9.1177 9.5964 5.0508 0.65781 9.5599 11.47 10.47 30.305 4.5457 14.213 5.5386 20.456-1.4066 15.657-5.0508 4.9653 6.2131 11.536 6.4051 19.193 2.5254 16.89 7.1252 21.893-0.91955 18.435-6.0609 12.026-8.8901 3.7764-8.4546-2.2728-11.112 1.2389-3.4327-0.53326-5.4252-14.647-1.5152 3.6833-2.5301 9.1927-4.6389 4.5457-9.0914 8.1969 3.8248 13.607 0.68225 19.193-2.0203 10.302 3.1182 7.1984-1.0254 1.5152-6.566 5.2042-7.395-1.8027-5.8746-5.5558-4.0406 5.8971-5.2633 0.13698-6.0817-2.5254-8.0812 1.5725-5.2251-11.168-5.2112-13.637 1.0102 1.6102-7.3556-10.271-7.2414-10.102 0.50507z" fill="#009f3f"/>
  <path transform="translate(180.43 140.28)" d="m40.375 90.531c-0.29704 0.67089-0.3548 1.5152-0.0625 2.6562a2.6554 2.6554 0 0 1 0 1.3125c2.1539-0.99168 4.4537-1.9906 6.9375-3.0625-3.38 0.2041-5.7274-0.17928-6.875-0.90625zm83.125 5.4375c4.647 4.4525-0.84795 6.5636-4.5312 9.0938 2.5468-0.70555 4.6708-1.1839 6.4688-1.5312 0.0209-9e-3 0.0416-0.0223 0.0625-0.0312 1.2991-0.55894 2.628-1.2273 4.0312-1.9062a2.6554 2.6554 0 0 1 1.9375 -0.15625c0.63176 0.19121 0.63951 0.1223 1.1562 0.25-0.70008-0.75926-1.3326-1.4806-2.25-2.375a2.6554 2.6554 0 0 1 -0.78125 -1.625c-1.8641-0.16307-3.882-0.68679-6.0938-1.7188zm-109.25 18.781c-0.56298 0.33989-1.1178 0.67548-1.625 1-4.9805 3.1868-7.2317 5.7405-7.7812 6.9688-0.27477 0.61412-0.21602 0.80154-0.15625 1s0.25087 0.51929 0.75 0.9375c0.99826 0.83643 3.0986 1.7603 5.2812 2.4688 1.839 0.59692 3.4535 1.2188 4.5 1.4062s1.1225 0.16162 1.4688-0.1875a2.6554 2.6554 0 0 1 2.4375 -0.71875c5.4068 1.1704 7.6855 0.71319 8.125 0.46875 0.21975-0.12222 0.20303-0.12716 0.34375-0.4375s0.30453-0.91721 0.5625-1.75a2.6554 2.6554 0 0 1 4.9375 -0.3125c1.0172 2.2618 1.5898 4.2993 1.9688 4.7188 0.1895 0.20971 0.09499 0.21711 0.59375 0.21875 0.49876 2e-3 1.6256-0.24999 3.4062-1.1562a2.6554 2.6554 0 0 1 3.875 2.1875c0.13043 1.8955 0.65041 3.004 1.5312 3.8438s2.3042 1.4915 4.5 1.7812c4.3916 0.57942 11.602-0.53053 20.844-3.4375a2.6554 2.6554 0 0 1 1.75 0.0625c6.6334 2.585 11.05 1.9786 12.719 1.0625 0.83449-0.45803 0.90139-0.83548 0.90625-0.875 0.0049-0.0395 0.12351-0.15899-0.53125-0.65625l1.5938-2.125 2.0625-1.6562c2.1349 2.6714 4.2948 3.7957 6.8125 4.0625s5.5858-0.45668 9.125-2.25a2.6554 2.6554 0 0 1 2.2188 -0.0625c8.0287 3.387 12.671 2.7817 14.438 1.7188 0.88308-0.53148 1.1997-1.0632 1.3125-1.6875s-0.0426-1.4144-0.5625-2.1875a2.6554 2.6554 0 0 1 0.625 -3.5938c0.026-0.0192 0.0367-0.0434 0.0625-0.0625-1.5107-0.43405-3.1393-1.0046-4.9062-1.75-7.0468 3.5707-13.167 3.6906-17.969-1.1562 2.0359 3.7123-4.2961 8.5894-16.875 3.6875-18.835 5.9242-29.655 5.0286-30.312-4.5312-7.991 4.067-7.9808-1.4759-9.5938-5.0625-0.85799 2.7698-0.84263 5.9736-12.125 3.5312-2.0859 2.1034-5.2143 0.55476-8.6562-0.5625-3.3284-1.0804-6.744-2.5438-7.6562-4.9062z" fill="#008033"/>
  <path d="m312.89 185.4c-14.525 3.3396-17.419 7.1848-1.0102 11.869l15.405 13.89 12.374-2.0203 22.223 3.7881 22.476-0.50508c14.043-6.2936 31.654-7.2361 40.911-20.708 7.5154-0.63039 15.426-5.0423-10.354-20.961-2.148-7.4514-4.9764-11.468-10.56-1.5761 1.7125-11.814-6.5052-4.9495-9.8958-1.4544-3.7219-6.2263-7.1758-3.7789-14.9 0 12.789-11.979 0.65581-7.8321-8.5863-5.5558 6.6432-0.19209 15.228-10.231 0.75762-11.617-5.2018-5.5944-9.2604-2.6146-13.132 1.7678 0.75023-9.5994-3.7342-13.509-18.435-6.3134-6.5979 0.72574-6.8348 7.8124-9.849 12.122 4.8639-9.7237 0.084-7.3882-5.3033-4.2932-8.8013-1.7088-19.102 1.9274-6.566 7.5762-11.225-5.3033-27.167 15.173-1.0102 8.3338-18.466 6.7271-5.5599 11.535 0.50507 12.627-26.445-12.381-24.006 3.5355-5.0508 3.0305z" fill="#00c44e"/>
  <path d="m301.53 193.73c-3.902 3.4445-10.191 13.095-7.8287 0.25254 3.5801-7.9022-5.7432-3.9355-8.3338 0-11.745-10.854-31.712-2.1176-10.102 5.8084-7.5979-1.5116-4.6943 4.7809 0.75761 3.283-23.916 3.2442-14.265 14.987-5.5558 17.678-5.0816 9.764 12.036 11.986 22.981 8.5863-6.8384 3.0633-0.66718 11.018 8.8314 5.7904 7.376 6.4006 8.9034 9.4904 15.16 9.1093-5.5844 7.2694 11.505 8.4428 10.859 2.2728-1.7914 18.055 15.894 7.9167 17.678 2.7779 14.28 6.0957 13.916-21.157 5.7217-23.619 12.183 7.0891 14.786 10.916 17.512 5.6889 12.664 8.0906 28.64 0.75566 24.496-5.3033 9.0512 10.678 29.173-8.3541 11.112-7.5761 11.714-4.0976 4.3853-11.738-3.283-8.5863 10.355-8.6985 3.5745-14.998-8.0812-11.617 10.092-10.671-19.312-8.1327-9.3439-4.2931-5.845-1.4558-12.906-4.4312-13.637 0.50507 3.4583-14.28-12.274-12.65-16.415 0.75762 2.9636-7.1629-6.9307-11.046-8.3338-0.75762 0.37866-10.422-16.894-4.4899-15.657 0.25254-7.5777 8.7016-9.1916 4.1649-10.859-0.25254 2.3772-5.3535-22.79-8.133-17.678-0.75761z" fill="#00b046"/>
  <path transform="translate(180.43 140.28)" d="m92 51.719c-1.4476 0.03368-2.6485 0.28867-3.2812 0.59375-0.18475 0.08908-0.10768 0.03244-0.1875 0.09375 0.38615 0.51375 1.9774 1.9159 5.375 3.4062 0.92691-1.0193 2.3912-1.9519 4.4375-2.7812-1.1831-0.51801-2.3827-0.88244-3.5312-1.0938-0.99854-0.18372-1.9439-0.23896-2.8125-0.21875zm3.9062 13.344 0.09375 0.75c-5.7077 0.77425-9.1744 2.1001-10.844 3.25s-1.6335 1.6063-1.5312 2.3438 0.84897 2.0906 2.25 3.3125 3.334 2.2786 5.0625 2.8125a3.0644 3.0644 0 0 1 1.8125 4.3438c-0.92334 1.7742-0.69886 2.1789-0.28125 2.7812s1.7403 1.5256 3.8438 2.0938c4.207 1.1362 10.922 0.88442 15.781-0.625a3.0644 3.0644 0 0 1 2.1562 5.7188c-1.1014 0.49335-1.1089 0.85239-1.0938 0.78125 0.0188 0.02547 0.0775 0.0585 0.21875 0.1875 0.60831 0.55567 3.0713 1.506 7-0.65625a3.0644 3.0644 0 0 1 3.4688 0.375c3.7944 3.2926 6.1103 5.6894 7.8125 6.9375s2.5473 1.5964 5.1562 1.4375a3.0644 3.0644 0 0 1 2.625 4.9375c-0.33884 0.44109-0.34368 0.52473-0.375 0.625 0.14557 0.0826 0.79074 0.48943 1.9062 0.625 1.2474 0.15161 2.7214-0.0816 3.4375-0.40625 0.35805-0.16231 0.47711-0.29278 0.46875-0.28125-8e-3 0.0115-0.0541 0.20473-0.0625 0.125l3.0625-0.3125 3.0625 0.3125c-0.40179 4.0494 0.37863 5.7879 0.90625 6.3438s1.3079 0.77028 2.9062 0.4375 3.6091-1.3317 5.1875-2.5 2.653-2.713 2.6875-2.8125a3.0644 3.0644 0 0 1 4.0938 -1.8125c2.5933 1.107 3.5932 0.76113 4.5312 0.0312 0.93396-0.72666 1.9089-2.4729 2.3438-4.8125-5.5049 3.9748-14.53 6.0923-13.812-6.0938-1.3246 4.9284-16.017 3.4713-10.781-3.3438-6.2563 0.38105-7.7803-2.7244-15.156-9.125-9.4986 5.2277-15.651-2.718-8.8125-5.7812-10.945 3.3997-28.082 1.1702-23-8.5938-2.1636-0.66835-4.3742-1.8895-6.125-3.4062zm129.38 8.7188c0.12093 0.17684 0.19401 0.35265 0.28125 0.53125 0.0539-0.02972 0.1051-0.06438 0.15625-0.09375-0.14394-0.15005-0.2986-0.27364-0.4375-0.4375zm-40.094 0.78125c2.7426 2.5475 4.1391 8.3013 3.6875 13.469a3.0644 3.0644 0 0 1 1.5625 0.46875c5.4846 3.504 11.76 3.6284 15.969 2.3125 2.1043-0.65794 3.6133-1.7166 4.1562-2.4062s0.54252-0.38711 0.1875-0.90625a3.0644 3.0644 0 0 1 4.875 -3.6875c1.6104 1.8998 3.3582 2.3248 5.4688 2.125s4.4322-1.3037 5.9062-2.5625c0.73701-0.62941 1.2603-1.3109 1.4688-1.7188 0.0458-0.08953 0.0118 0.01979 0.0312-0.03125-0.0478-0.01903-0.0229-0.0053-0.0937-0.03125-0.584-0.21404-1.9049-0.42996-3.9062-0.34375a3.0644 3.0644 0 0 1 -2.1875 -0.78125c-4.8747 2.7467-13.814 3.5552-21.531-1.375-2.5677 4.9238-5.133 1.7722-15.594-4.5312z" fill="#00943b"/>
  <path d="m420 191.65c-8.972 3.4497-7.9879 16.311 0.35714 12.5-5.8878 9.7959 1.0438 11.58 5.3572 15-11.063-5.5398-7.7152 2.3706-9.6429 5.3571l20.714 16.429c22.495 1.555 38.239 13.913 67.5 4.6429 11.777-3.7217 39.964-25.449 6.7857-32.857 12.591-11.928 7.9834-16.538-11.071-15 7.6277-1.5908 34.266-24.957-13.214-21.071-1.2397-14.793-10.996 4.0069-16.071 7.1428 3.2734-5.9468 4.2745-12.167-10.714-10.714 10.534-3.1906 2.904-22.501-17.143 0.35714 11.423-13.309 7.3889-12.414-6.0714-2.8571-0.82208-10.671-24.418-9.4282-11.071 6.0714-12.106-8.6476-22.137 11.336-5.7143 15z" fill="#00d756"/>
  <path d="m357.25 412.49c-7e-3 12.043-2.1453 36.154-3.25 37.375-2.8488 3.1498-2.5458 4.8486-3.75 7.25l8.875 0.375 2.125-45.625c-1.0269 1.5931-2.1987-0.077-4 0.625z" fill="#554941"/>
  <path d="m357.68 451.65c-5.5912 4.0868-11.94 5.7104-18.393 14.107-3.9797 5.1783-6.7985 3.3543-11.786 8.3929-3.697 3.735-8.75 3.0091-13.75 3.2143-3.3595 0.13789-8.6994 5.0332-0.53571 7.5 7.2252 2.1832 13.893 5.8499 23.929 1.0714 3.8431-1.83 7.4172 1.3026 9.6645-7.8444 0.46498-1.8925 3.9277-1.8733 6.0498-2.1556 8.3449-1.1098 15.656 7.2544 25.179 1.9643 3.9211-2.1784 15.396-2.8829 16.607-3.75 1.3023-0.93231-2.1509-20.543-14.286-20.357-3.7538 0.0575-1.5892-6.6306-5.8928-7.8571-12.574-3.5838-18.629 5.4072-16.786 5.7143z" fill="#917c6f"/>
  <path d="m410.88 448.04c-10.272 2.3976-20.058 15.861-16.415 25.759 1.8685 5.0762 11.371 4.4662 16.415 7.8287 2.7281 1.8186 1.8078 5.9108 3.283 8.8388 1.2173 2.4162 2.8391 4.7096 4.7982 5.8084 3.0183 1.6928 8.3499-0.16396 9.849-3.283 0.73837-1.5363-3.0998-7.453-1.5152-8.0812 3.075-1.2191 5.823-2.7187 5.3033-3.0305 7.1155 4.8962 12.969 6.3135 19.951 6.3135 1.2597 0 5.9242-0.78529 5.3033-2.7779-1.9309-6.1967-11.186-6.6929-16.162-10.859-5.3866-4.5092-9.3088-10.586-14.647-15.152-5.0049-4.2808-9.7489-12.861-16.162-11.364z" fill="#917c6f"/>
  <path d="m309.88 480.36s11.077 6.0816 17.125 6c3.745-0.0505 10.5-4 10.5-4s4.3543 0.18437 6-1c2.4509-1.7638 1.8278-6.1969 4.25-8 5.4535-4.0598 20-4 20-4s5.5 6.75 7.25 6.5 18.83-3.1752 20.75-4.375c2-1.25 4.7518-2.8504 7.25-2.375 4.9998 0.95138 11.25 8.25 11.75 9.75s0.59651 10.34 3.75 14c1.3642 1.5833 5.75 2.5 5.75 2.5s-3.1966 3.5044-8.375-2.5c-2.7537-3.193-2.5145-9.5706-4.125-11-3.0928-2.745-12.375-4.125-12.375-4.125-2.1294-0.46099-3.6794-2.373-4.375-3.5-1.4129-0.89913-15.679 3.1391-21 4.75-3.7463 1.1341-9.375-1-12.125-2s-10.237-2.5237-14-0.375c-2.5629 1.4634-0.7592 4.3106-4.375 7.125-1.6444 1.2799-2.984 0.93449-5.625 1.625-2.4866 0.65015-7.4309 2.9083-10.5 2.75-5.6582-0.29189-12.962-2.3427-17.75-5.625-0.58827-0.40326 0.25-2.125 0.25-2.125z" fill="#6c5d53"/>
  <path d="m312 270.46c-9.8264-4.0716-12.878-1.9235-12.76 3.1344-6.2463-5.0605-15.472-0.0675-16.832 8.2634-9.3211-9.7832-35.546 8.3449-23.077 18.522-7.7258 4.8872-0.22976 17.073 12.488 11.683-4.6952 7.3028 9.7047 17.698 20.905 3.7043-1.1262 1.1821 8.4571-0.89778 11.403-7.6936 3.9024 6.3869 16.451 5.849 17.647-5.9839 0 0 14.117 4.8441 16.018-6.8387 9.1289 9.126 25.683 6.1322 12.76-6.5538 14.025 2.6865 22.54 2.5887 17.104-4.5591 10.685 7.0178 19.302 17.447 39.637 8.5484 10.621-8.1566 1.8366-17.475-9.5021-27.07-2.9849-3.2037 2.2957-9.0996-20.09-5.9839-0.48165-2.2749-10.708-5.5529-19.547 1.7097 11.946-6.5538 2.9864-10.543-4.3438-3.7043 12.892-14.453-0.90513-13.066-10.86-8.8333 2.3436-6.4166-26.436-6.6154-18.19 2.2796-5.5386-0.39571-10.675 12.086 4.3438 13.677-1.1064 7.7858-5.9557 11.207-13.574 11.398-1.0498-1.9794 4.0927-7.8584-3.5294-5.6989z" fill="#00973c"/>
  <path transform="translate(180.43 140.28)" d="m145.75 112.31a2.0543 2.0543 0 0 1 -1.5938 0.5625c-0.59779-0.0427-1.39 0.28215-2.0938 1.0625s-1.1856 1.9388-1.2188 3.0312c-0.0332 1.0925 0.28717 2.1206 1.4062 3.125 0.49663 0.44576 1.1899 0.89825 2.0938 1.2812 2.303-1.8523 3.7906-4.6696 4.3438-8.5625-1.0819-0.11466-2.0574-0.28121-2.9375-0.5zm41.469 19.875c5.4358 7.1478-3.069 7.249-17.094 4.5625 5.0111 4.9191 5.5766 8.387 3.875 10.25 5.2972 0.86113 9.5171 1.1596 11.594 0.78125 0.62957-0.1147 1.0371-0.27848 1.1875-0.375-0.0244 0.0642-5e-3 -0.75804-1.1875-2.3125a2.0543 2.0543 0 0 1 2.75 -2.9688c5.5219 3.6267 10.235 7.8644 15.812 10.062 5.5202 2.1754 11.962 2.5857 21.594-1.5625 2.2525-1.779 3.3331-3.4405 3.6875-5 0.36504-1.6064 0.0618-3.293-0.9375-5.2812-0.10707-0.21302-0.25188-0.43914-0.375-0.65625-0.38553 0.35412-0.79437 0.71259-1.25 1.0625-20.336 8.899-28.971-1.5447-39.656-8.5625zm-29.844 11.125c-1.9004 11.683-16.031 6.8438-16.031 6.8438-1.1954 11.833-13.754 12.356-17.656 5.9688-2.9455 6.7958-12.532 8.8696-11.406 7.6875-11.2 13.993-25.602 3.6153-20.906-3.6875-4.18 1.7716-7.7719 1.6424-10.469 0.5a2.0543 2.0543 0 0 1 -0.90625 1.2188c-1.4789 0.93553-2.0356 1.9973-2.1562 3.125s0.2865 2.3839 1.2188 3.5c1.8645 2.2322 5.7863 3.8278 11.5 1.4062a2.0543 2.0543 0 0 1 2.5312 3.0312c-0.79543 1.2372-0.76104 2.3461-0.15625 3.5938s1.91 2.5075 3.6875 3.2188c3.555 1.4225 8.8862 0.96738 14.062-5.5l1.5938 1.2812 1.5 1.4062c0.12809-0.13444 0.63474-0.55303 0.4375-1.5938-0.0986-0.52036-0.46703-1.0042-0.75-1.2188s-0.49233-0.24621-0.625-0.28125c-0.53067-0.14018-0.29311-0.048-0.0312-0.0937 0.52373-0.0914 1.6163-0.39238 2.7812-0.9375 2.3298-1.0902 5.0386-3.0897 6.2188-5.8125a2.0543 2.0543 0 0 1 3.625 -0.25c1.427 2.3356 4.6758 3.5466 7.6562 2.9062s5.693-2.8275 6.2188-8.0312a2.0543 2.0543 0 0 1 2.6874 -1.7188s3.2598 1.0596 6.5 0.84375c1.6201-0.1079 3.1488-0.53539 4.3125-1.4062s2.0931-2.1863 2.5-4.6875a2.0543 2.0543 0 0 1 3.4688 -1.0938c4.0452 4.0439 10.087 5.1918 12.594 4.375 0.62674-0.2042 0.99565-0.47545 1.1875-0.71875s0.28312-0.47256 0.25-1c-0.0662-1.0549-1.0797-3.3232-4.125-6.3125a2.0543 2.0543 0 0 1 -0.625 -1.3438c-3.4268-0.33499-7.5005-2.0328-10.688-5.2188z" fill="#008033"/>
  <path d="m380.71 233.08c-2.8123 5.9336-15.002 8.1987 2.1429 15-5.5753 2.9894-6.8256 5.7289 2.5 7.8571-16.989 2.6094-12.388 8.6618-5.3571 10-8.4199 4.716-11.122 20.589 15 22.143-7.149 11.247 17.325 11.788 17.5 1.4286-2.6662 3.7028-0.69265 14.094 12.143 5-4.1086 14.161 19.369 12.535 16.429 0 4.3433 15.419 18.316 6.0843 25-0.35714 10.022 4.1019 30.989 0.7848 28.929-18.571 9.5848-0.6122 39.405-22.259 7.1429-18.929 22.541-15.74-6.8887-11.919-13.214-8.9286 10.287-1.7039 18.658-14.22-16.071-13.214-0.0133-7.5186 6.1535-18.699-18.214-11.786-9.5889-17.874-19.946-3.0167-22.564 2.2014 2.3994-10.151-4.061-8.9219-8.5074-1.4871 1.8918-5.1399-9.1539-13.19-15.357-1.7857-14.777-8.0434-20.579-3.622-18.214 12.143-2.4792-7.2634-5.8923-14.478-9.2857-0.71428z" fill="#00cc52"/>
  <path d="m384.16 371.41-2.9375 0.0625c0.091 1.5364 0.19862 2.9434 0.28125 4.5938-3.2094-0.24219-6.7109-0.77497-9.4688-1.1875-0.19581-0.29328-0.46383-0.522-0.78125-0.71875-0.0429-0.82251-0.088-1.6419-0.125-2.4688l-2.8438 0.0625c0.0483 0.93544 0.1099 1.7197 0.15625 2.6875-0.0809-5e-3 -0.16928 1e-3 -0.25 0-0.11102-0.0266-0.19763-0.0706-0.34375-0.0625-0.43387 0.0239-0.82407 0.25136-1.0938 0.53125s-0.44682 0.61918-0.59375 1c-0.29385 0.76163-0.43168 1.6909-0.375 2.7188 0.0553 1.0026 0.26632 1.9066 0.625 2.625 0.30615 0.61322 0.78899 1.1125 1.4375 1.2812 0.1628 0.23909 0.42279 0.54236 1 0.75 0.1591 4.304 0.27193 8.2217 0.375 12.031-0.0434 4e-3 -0.12533-2e-3 -0.15625 0-0.11415-0.0151-0.20973-0.0504-0.34375-0.0312-0.43277 0.0618-0.81674 0.32233-1.0625 0.625s-0.38325 0.66814-0.5 1.0625c-0.23351 0.78872-0.30217 1.7274-0.15625 2.75 0.14602 1.0234 0.45989 1.9325 0.90625 2.625 0.22318 0.34624 0.49161 0.6531 0.8125 0.875 0.19092 0.13202 0.44545 0.13701 0.6875 0.1875 0.0487 2.4567 0.0991 5.06 0.0937 5.5625-0.0287 2.7014-0.13299 5.3906-0.28125 8.0312-0.0426 0.0512-0.0959 0.0837-0.125 0.125-0.25379 0.0478-0.51975 0.0499-0.71875 0.1875-0.32089 0.2219-0.58932 0.52876-0.8125 0.875-0.44636 0.69248-0.76023 1.6016-0.90625 2.625-0.14592 1.0226-0.0773 1.9613 0.15625 2.75 0.11675 0.39436 0.25424 0.75983 0.5 1.0625 0.23723 0.29217 0.61846 0.52128 1.0312 0.59375 5e-3 9.7e-4 -6e-3 0.0303 0 0.0312 0.0152 2e-3 0.0167-1e-3 0.0312 0 0.075 8e-3 0.1008-0.0242 0.15625-0.0312 0.0216-3e-3 0.0442 4e-3 0.0625 0-0.42108 4.5758-0.93131 9.0842-1.4688 13.562-0.13529 0.097-0.26527 0.19212-0.375 0.3125-0.11155 5e-3 -0.20636 0.0136-0.34375 0.0312v0.0312c-0.13612-7e-3 -0.27537-0.0579-0.40625-0.0312-0.42941 0.0873-0.77321 0.36994-1 0.6875s-0.34507 0.69266-0.4375 1.0938c-0.18486 0.80218-0.20574 1.7695 0 2.7812 0.27036 1.3295 0.83754 2.3187 1.625 2.9688-0.42659 3.6658-0.81206 7.3373-1.125 11-0.0569 0.0589-0.10505 0.12198-0.15625 0.1875-0.0897 0.0106-0.17827 0.0111-0.28125 0.0312v0.0312c-0.12119 0.012-0.27147 0.0116-0.34375 0.0312-0.42104 0.11304-0.76065 0.38958-0.96875 0.71875s-0.30608 0.72019-0.375 1.125c-0.13785 0.80961-0.0804 1.7523 0.1875 2.75 0.30191 1.1245 0.8049 2.0172 1.4375 2.6562-0.21746 4.6031-0.2633 9.2119 0 13.906 0.10413 1.8565-0.18725 4.2869 1.2188 6.1562 1.2097 1.6084 3.5178 2.7153 5.5625 3.5312s3.8438 1.2812 3.8438 1.2812v-0.0312c0.16327 0.1303 0.25581 0.26359 0.6875 0.28125 0.32554 0.0133 0.71552-0.0956 1.0312-0.34375 0.31573-0.2482 0.58028-0.60648 0.8125-1.0938 0.34213-0.71791 0.0719-1.3199-0.125-1.7812-0.19694-0.46137-0.4375-0.8125-0.4375-0.8125a0.75008 0.75008 0 0 0 -0.53115 -0.34365s-1.5086-0.20155-3.25-0.6875-3.6844-1.3292-4.4062-2.1562c-1.1016-1.2622-1.0568-3.5331-1.2188-5.6875-0.27617-3.6748-0.30641-7.3251-0.1875-11 0.20861-0.0208 0.4102-0.0211 0.625-0.125 0.53781-0.26011 0.87364-0.72319 1.125-1.1875 3.9099-1.0607 5.494-1.1222 8.4375-1.25-0.22171 4.09-0.28977 8.2209-0.0625 12.5 0.0988 1.8604-0.1836 4.2604 1.2188 6.125 1.2097 1.6084 3.5178 2.7153 5.5625 3.5312s3.8438 1.2812 3.8438 1.2812v-0.0312c0.16327 0.1303 0.25581 0.26359 0.6875 0.28125 0.32554 0.0133 0.71552-0.0956 1.0312-0.34375 0.31573-0.2482 0.58028-0.60648 0.8125-1.0938 0.34213-0.71791 0.0719-1.3199-0.125-1.7812-0.19694-0.46137-0.4375-0.8125-0.4375-0.8125a0.75008 0.75008 0 0 0 -0.53125 -0.3438s-1.5086-0.20155-3.25-0.6875-3.6844-1.3292-4.4062-2.1562c-1.1096-1.2713-1.0968-3.5132-1.25-5.6562-0.25517-3.5703-0.22792-7.0775-0.0625-10.562 0.38491 0.1643 0.86032 0.2431 1.3438 0.0312 0.38434-0.16843 0.65194-0.47475 0.90625-0.78125 0.53961-0.22001 0.94238-0.64835 1.1562-1.1562 0.24597-0.58414 0.30816-1.2384 0.25-1.9375-0.11095-1.3336-0.75605-2.7972-2.0312-3.75-0.0962-0.11524-0.12075-0.15457-0.0937-0.125-0.0147-0.0161-0.0475-0.0153-0.0625-0.0312-0.21672-0.23026-0.48184-0.44519-0.78125-0.59375 0.33665-3.0457 0.74546-6.1381 1.1875-9.2188 0.25219 0.0176 0.51789 3e-3 0.78125-0.0937 0.4082-0.14962 0.7161-0.46651 1-0.78125 0.53672-0.20121 0.98071-0.57257 1.2188-1.0625 0.27438-0.56472 0.35963-1.2434 0.34375-1.9375-0.0304-1.3288-0.56791-2.7918-1.7812-3.8125-0.0305-0.0256-0.0312-0.0687-0.0625-0.0937a0.75008 0.75008 0 0 0 -0.0312 -0.0312c-0.0102-0.0127-0.0209-0.0188-0.0312-0.0312a0.75008 0.75008 0 0 0 -0.0625 -0.0625c9e-3 0.0145 2e-3 0.0247-0.0312 0-5e-3 -7e-3 -2e-3 -0.0324 0-0.0312-0.0107-0.0116-0.0205-0.02-0.0312-0.0312-0.0547-0.0572-0.13091-0.0748-0.1875-0.125 0.59412-4.2043 1.1532-8.4913 1.5312-12.938 0.41146-0.1532 0.7441-0.42957 1-0.75 0.0269-0.0337 0.0683-0.0595 0.0937-0.0937a0.75008 0.75008 0 0 0 0.0312 -0.0312c6e-3 -5e-3 0.0215-0.0226 0.0312-0.0312 0.0116-0.0103 0.0197-0.0209 0.0312-0.0312a0.75008 0.75008 0 0 0 0.0312 -0.0312c0.0215-0.0251 9e-3 -0.028 0.0312-0.0625 1.1597-1.0992 1.618-2.6308 1.5625-3.9688-0.029-0.69856-0.18403-1.3585-0.5-1.9062-0.27299-0.47326-0.72633-0.84356-1.2812-1-0.15416-0.15138-0.36538-0.22854-0.5625-0.34375 7e-3 -0.17028 0.0275-0.34799 0.0312-0.53125 0.0915-4.4546 5e-3 -8.7824-0.125-13.125 0.42026-0.12654 0.72009-0.38138 1-0.65625 0.55492-0.15644 1.0083-0.52674 1.2812-1 0.31597-0.54778 0.47103-1.2077 0.5-1.9062 0.0555-1.338-0.40277-2.8695-1.5625-3.9688-0.0112-0.0106-0.0199-0.0208-0.0312-0.0312a0.75008 0.75008 0 0 0 -0.0625 -0.0937c-8e-3 -0.0116-0.0229-0.0197-0.0312-0.0312-0.0334-0.0461-0.089-0.0799-0.125-0.125-0.31827-0.39911-0.719-0.77384-1.2812-0.875-0.1787-3.6667-0.37976-7.3738-0.59375-11.156 0.12006-0.0683 0.23502-0.13082 0.34375-0.21875 0.55277-0.11854 1.0376-0.43293 1.3438-0.875 0.36012-0.52008 0.56735-1.1493 0.65625-1.8438 0.16939-1.3232-0.17267-2.9013-1.2188-4.0938-0.0351-0.0662-0.0857-0.12356-0.125-0.1875-0.31224-0.50767-0.7354-0.93984-1.3438-1.0938a0.75008 0.75008 0 0 0 -0.0312 0c-0.0199-4e-3 -0.0425 4e-3 -0.0625 0-0.0404-0.65681-0.0928-1.3046-0.125-1.9688-0.0293-0.60251-0.0458-1.3516-0.0625-2.0625zm-10.688 10.938c3.1817-0.0675 4.5963 0.3258 8.375 0.90625 0.17486 4.3896 0.29045 8.4892 0.40625 12.531-3.1998 0.0247-6.7062-0.17539-9.4375-0.34375-0.12953-0.15419-0.27248-0.28507-0.4375-0.40625-0.18122-4.1407-0.41625-8.3242-0.65625-12.594 0.61447-0.0366 1.2655-0.0835 1.75-0.0937zm3.6562 20.219c0.37463-0.0149 0.72052-6e-3 1.0625 0 1.1616 0.0209 2.5178 0.15102 4.25 0.28125 0.1046 4.3852 0.19559 8.0815 0.1875 8.8438-0.0217 2.0394-0.0945 4.0096-0.1875 5.9688-4.0232 0.28292-5.3228 0.50965-9.9062-0.15625 0.0578-1.1464 0.13233-2.303 0.15625-3.4688 0.0744-3.6285 0.0468-7.2029-0.0312-10.75 0.0712-0.0766 0.1228-0.16526 0.1875-0.25 1.8285-0.26767 3.1574-0.42402 4.2812-0.46875zm3.7188 22.125c0.36781-4e-3 0.7291 0.0225 1.0938 0.0312-0.40124 4.8618-0.88865 9.5284-1.4688 14.062-3.3192 0.27916-7.1475 0.26091-10.125 0.25 0.59321-4.4369 1.1913-8.8866 1.625-13.344 0.25795-0.17269 0.45394-0.39142 0.625-0.625 2.4112-0.14941 5.345-0.33877 8.25-0.375zm-3.5312 21.125c0.59798 4e-3 1.4178 0.0131 2.2188 0.0312-0.46867 3.6459-0.90182 7.2622-1.25 10.875-3.2822 0.4516-6.9875 0.64389-9.875 0.8125-0.0858-0.0817-0.18406-0.14879-0.28125-0.21875 0.2981-3.1943 0.71309-6.3842 1.125-9.5938 0.0564-0.0174 0.0997-8e-3 0.15625-0.0312 0.55256-0.22635 0.92622-0.65809 1.2188-1.125 3.2058-0.66188 4.7122-0.76151 6.6875-0.75z"/>
  <path d="m350.15 367.21c3.9994 4.9904 7.9063 10.007 9.5964 15.657 1.2197-2.0324 3.5191-2.1753 3.5355-6.3135-2.77-3.8035-8.0923-6.5131-13.132-9.3439z" fill="#917c6f"/>
  <path d="m310.5 319.5c3.3951 0.67339 2.7348-0.66187 4.0406-0.88389l0.88389 5.5558-3.9143 1.7678z" fill="#917c6f"/>
  <path d="m381.17 361.22c1.4155 9.7857 2.2435 47.287 2.2097 50.47-0.26265 24.751-6.0951 43.042-4.9498 64.612 0.10327 1.9447-0.10991 4.1889 1.0607 5.7452 2.0196 2.6852 9.0156 4.5078 9.0156 4.5078s0.84903 0.88522 1.6428-0.78033c0.31688-0.66492-0.49372-1.8713-0.49372-1.8713s-6.2248-0.90863-8.1317-3.0936c-1.3722-1.5723-1.2654-4.0172-1.4142-6.0988-1.3828-19.349 4.5143-36.769 4.9498-57.983 0.29584-14.414-0.84443-27.849-1.591-43.222-0.1947-4.0092 0.023-10.691-1.2374-13.7-0.30895-0.73765-1.9025-0.90158-2.8319-1.1029-1.6084-0.34847-3.507 1.0159-3.507 1.0159l4.534 0.63843s0.68664 0.46439 0.74428 0.86285z" fill="#c8beb7"/>
  <path d="m368.05 358.51c1.4155 9.7857 2.2435 47.287 2.2097 50.47-0.26265 24.751-6.2614 46.707-4.9498 70.092 0.10906 1.9444-0.10991 4.1889 1.0607 5.7452 2.0196 2.6852 9.0156 4.5078 9.0156 4.5078s0.84903 0.88522 1.6428-0.78033c0.31688-0.66492-0.49372-1.8713-0.49372-1.8713s-6.2248-0.90863-8.1317-3.0936c-1.3722-1.5723-1.2578-4.0178-1.4142-6.0988-1.5901-21.159 4.5143-42.249 4.9498-63.463 0.29584-14.414-0.84443-27.849-1.591-43.222-0.1947-4.0092 0.023-10.691-1.2374-13.7-0.30895-0.73765-1.8597-2.1636-1.8597-2.1636l0.0547 2.6266s0.68664 0.55278 0.74428 0.95124z" fill="#c8beb7"/>
  <path d="m367.72 375.21c1.1492-0.37615 11.682 2.0254 17.437 1.7494 2.1828 2.0886 1.2208 6.2333-0.58016 5.9059-8.2459-1.0728-7.2757-1.7202-16.378-0.97052z" fill="#a05a2c"/>
  <path transform="matrix(.51607 -.028461 .033124 .60062 149.55 128.05)" d="m398.45 435.77c0 3.1242-1.3455 5.6568-3.0052 5.6568s-3.0052-2.5327-3.0052-5.6568c0-3.1242 1.3455-5.6569 3.0052-5.6569s3.0052 2.5327 3.0052 5.6569z" fill="#784421"/>
  <path d="m368.63 375.27 1.287 0.0618c1.4052 2.6491 0.6096 4.9798-0.37522 6.4386l-1.254 0.13555s0.47183 0.96916 1.5 0.71399c1.562-0.38768 2.1137-2.8908 2.142-4.5 0.0233-1.3293 1e-3 -3.1869-1.4376-3.5944-0.86723-0.18419-1.5768 0.25012-1.8622 0.74448z" fill="#c8beb7"/>
  <path d="m382.51 376.94 1.1742 0.0238c1.4052 2.6491 0.97146 4.318-0.0134 5.7768l-0.84571-0.0861s0.039 0.95122 1.0587 0.73832c1.3656-0.2851 1.9196-1.9949 1.9479-3.6041 0.0233-1.3293-0.49505-3.3587-1.5724-3.6312-0.86723-0.18419-1.4641 0.28815-1.7494 0.78252z" fill="#c8beb7"/>
  <path d="m368.66 396.14c1.1123-0.47417 11.814 1.007 17.523 0.23395 2.3553 1.8919 1.7556 6.1042-0.0669 5.9339-8.3078-0.35525-7.3972-1.0841-16.4 0.4503z" fill="#a05a2c"/>
  <path transform="matrix(.51167 -.073009 .084971 .5955 129.93 168.78)" d="m398.45 435.77c0 3.1242-1.3455 5.6568-3.0052 5.6568s-3.0052-2.5327-3.0052-5.6568c0-3.1242 1.3455-5.6569 3.0052-5.6569s3.0052 2.5327 3.0052 5.6569z" fill="#784421"/>
  <path d="m369.58 396.11 1.2875-0.0498c1.6291 2.5176 1.0382 4.9084 0.18332 6.4469l-1.2375 0.24355s0.55392 0.9247 1.5561 0.58152c1.5226-0.52139 1.8556-3.0629 1.7445-4.6685-0.0918-1.3263-0.27477-3.175-1.7432-3.4565-0.87992-0.10846-1.5493 0.38562-1.7908 0.90282z" fill="#c8beb7"/>
  <path d="m383.55 396.57 1.1719-0.0779c1.6291 2.5176 1.3415 4.2178 0.48652 5.7563l-0.84998-0.0126s0.12116 0.94428 1.1186 0.64394c1.3358-0.40219 1.7398-2.1535 1.6287-3.7591-0.0918-1.3263-0.78382-3.3032-1.8807-3.4816-0.87992-0.10846-1.4336 0.41375-1.6752 0.93096z" fill="#c8beb7"/>
  <path d="m368.31 424.39c1.1123 0.47417 11.814-1.007 17.523-0.23395 2.3553-1.8919 1.7556-6.1042-0.0669-5.9339-8.3078 0.35525-7.3972 1.0841-16.4-0.4503z" fill="#a05a2c"/>
  <path transform="matrix(.51167 .073009 .084971 -.5955 129.58 651.75)" d="m398.45 435.77c0 3.1242-1.3455 5.6568-3.0052 5.6568s-3.0052-2.5327-3.0052-5.6568c0-3.1242 1.3455-5.6569 3.0052-5.6569s3.0052 2.5327 3.0052 5.6569z" fill="#784421"/>
  <path d="m369.22 424.41 1.2875 0.0498c1.6291-2.5176 1.0382-4.9084 0.18332-6.4469l-1.2375-0.24355s0.55392-0.9247 1.5561-0.58152c1.5226 0.52139 1.8556 3.0629 1.7445 4.6685-0.0918 1.3263-0.27477 3.175-1.7432 3.4565-0.87992 0.10846-1.5493-0.38562-1.7908-0.90282z" fill="#c8beb7"/>
  <path d="m383.2 423.95 1.1719 0.0779c1.6291-2.5176 1.3415-4.2178 0.48652-5.7563l-0.84998 0.0126s0.12116-0.94428 1.1186-0.64394c1.3358 0.40219 1.7398 2.1535 1.6287 3.7591-0.0918 1.3263-0.78382 3.3032-1.8807 3.4816-0.87992 0.10846-1.4336-0.41375-1.6752-0.93096z" fill="#c8beb7"/>
  <path d="m366.02 439.98c1.0825-0.53881 11.852 0.31003 17.507-0.79765 2.4626 1.75 2.1118 5.9904 0.28241 5.9276-8.3143 0.13426-7.4482-0.64695-16.345 1.4146z" fill="#a05a2c"/>
  <path transform="matrix(.50649 -.10299 .11987 .58947 114.32 227.07)" d="m398.45 435.77c0 3.1242-1.3455 5.6568-3.0052 5.6568s-3.0052-2.5327-3.0052-5.6568c0-3.1242 1.3455-5.6569 3.0052-5.6569s3.0052 2.5327 3.0052 5.6569z" fill="#784421"/>
  <path d="m366.93 439.91 1.2823-0.12548c1.7744 2.4174 1.3253 4.8388 0.56238 6.4249l-1.221 0.31595s0.60738 0.8905 1.5877 0.48894c1.4893-0.61009 1.6721-3.1668 1.4668-4.763-0.1697-1.3186-0.46114-3.1533-1.9436-3.348-0.88478-0.0565-1.5239 0.47613-1.7346 1.0066z" fill="#c8beb7"/>
  <path d="m380.9 439.55 1.1653-0.14673c1.7744 2.4174 1.5873 4.1315 0.82442 5.7177l-0.84924 0.0374s0.17651 0.93551 1.1546 0.57699c1.3098-0.4801 1.6101-2.2522 1.4047-3.8484-0.1697-1.3186-0.97685-3.2514-2.0823-3.3648-0.88477-0.0565-1.4068 0.4974-1.6175 1.0279z" fill="#c8beb7"/>
  <path d="m364.32 458.76c1.0472-0.60451 11.849-0.42111 17.424-1.8752 2.5657 1.5949 2.477 5.8488 0.64724 5.8989-8.2902 0.64648-7.474-0.18663-16.227 2.4194z" fill="#a05a2c"/>
  <path transform="matrix(.49917 -.13402 .15597 .58096 99.983 261.77)" d="m398.45 435.77c0 3.1242-1.3455 5.6568-3.0052 5.6568s-3.0052-2.5327-3.0052-5.6568c0-3.1242 1.3455-5.6569 3.0052-5.6569s3.0052 2.5327 3.0052 5.6569z" fill="#784421"/>
  <path d="m365.23 458.63 1.2722-0.20428c1.9201 2.3034 1.621 4.7479 0.95733 6.378l-1.1993 0.39061s0.66111 0.85137 1.6148 0.39015c1.4489-0.70073 1.4738-3.2638 1.1704-4.8444-0.25066-1.3056-0.65463-3.1189-2.1462-3.2218-0.88658-2e-3 -1.4916 0.56915-1.6692 1.1116z" fill="#c8beb7"/>
  <path d="m379.15 457.41 1.154-0.21828c1.9201 2.3034 1.839 4.0258 1.1753 5.656l-0.84532 0.0897s0.23383 0.92285 1.188 0.50473c1.2777-0.55992 1.4682-2.3471 1.1648-3.9277-0.25066-1.3056-1.1754-3.185-2.2857-3.2301-0.88658-2e-3 -1.3735 0.58316-1.551 1.1257z" fill="#c8beb7"/>
  <path d="m307.25 337.88s6.1474 10.472 2 16.5c-3.375 4.9052-14.111-1.3084-19.03-1.3232-7.4341 0.91053-14.093 1.6145-20.72 2.9482l-1.9974 1.5732c6.3125-0.84375 9.2616-2.6408 16.905-2.1777 4.6981 0.28464 12.716 2.3218 17.489 5.3482 16.635 10.546 32.121 19.936 46.086 33.071 4.6168 4.3426 6.8382 24.422 12.268 22.018 6.4371-2.8508 5-25.707 5-25.707s-15.813-8.1743-21.25-13c-14.506-12.875-25.802-16.019-31.75-35.75-0.58715-1.9479-5-3.5-5-3.5z" fill="#554941"/>
  <path d="m431.25 479.36c-1.2833 2.9503-4.0416 3.9735-3.625 4.25 1.4862 0.98623 3.9172-1.0828 5.25-2.75 4.801 5.398 15.891 8.463 21.875 6.625 4.189-1.2866 1.25-2.375 1.25-2.375-7.54 1.712-16.161-4.0534-23.25-8.75 0 0-1.1106 2.1047-1.5 3z" fill="#6c5d53"/>
  <path transform="translate(180.43 140.28)" d="m214.34 80.125c-0.0998 0.03746-0.19063 0.08142-0.28125 0.125 0.15042 0.41824 0.32447 0.82731 0.46875 1.25-0.0715-0.47669-0.13095-0.91908-0.1875-1.375zm-11.781 13.469a2.4136 2.4136 0 0 1 -0.0937 0.21875c-0.96705 2.0403-2.5282 3.4638-3.8438 4.6562s-2.4159 2.2537-2.6875 2.7188c-0.0543 0.093-0.052 0.13547-0.0625 0.15625 0.0414 0.0623 0.13026 0.18697 0.3125 0.375 0.69575 0.71788 2.7983 2.0428 6.5938 3.5938 1.7634-0.63585 4.0729-1.2235 7.0938-1.6875-9.3256-2.1282-8.0753-4.8543-2.5-7.8438-1.9943-0.79113-3.5511-1.5062-4.8125-2.1875zm-6.6875 7.75c-0.0414-0.0623-0.0352-0.0623-0.0312-0.0312 5e-3 0.0372 0.0155 0.0624 0.0312 0.0312zm134.97 17.25c-4.1481 2.5636-8.5542 4.5113-11.312 4.6875 0.33877 3.1832 0.0369 5.9273-0.71875 8.2812 1.3403-0.55189 2.8034-1.2434 4.25-2.0625 3.464-1.9613 6.9673-4.554 9-6.7812 1.0163-1.1136 1.614-2.141 1.7812-2.6875s0.20561-0.29677 0.0312-0.46875c-0.17229-0.16994-1.104-0.72433-3.0312-0.96875zm-131.44 0.78125c-0.96187 0.30908-1.8022 0.60995-2.375 0.90625-0.94988 0.49137-1.2435 0.81028-1.3438 0.9375 0.0551 0.0706 0.18922 0.32266 0.71875 0.6875 0.53338 0.36749 1.3368 0.74147 2.25 1.0312 0.0294-1.2233 0.28117-2.4265 0.75-3.5625zm-3.7188 1.8438c-0.0265-0.034-0.0596-0.0318-0.0625 0.0312 7e-3 -9e-3 0.0509-0.0166 0.0625-0.0312zm4.4688 6.9062c-2.9524 1.9869-4.7973 5.7967-3.75 9.0312 0.55856 1.7251 1.8861 3.5136 4.75 5.0625s7.2772 2.7824 13.562 3.1562a2.4136 2.4136 0 0 1 1.875 3.6875c-1.2821 2.017-1.0496 2.738-0.6875 3.3125s1.542 1.346 3.3125 1.6562 3.9745 0.18575 5.8438-0.375 3.3178-1.5585 4-2.625a2.4136 2.4136 0 0 1 4.4375 1.4688c-0.0899 1.4035 0.33068 2.4353 1.1875 2.7812s3.42 0.30221 8.125-3.0312a2.4136 2.4136 0 0 1 3.7188 2.6562c-0.85936 2.9618-0.26891 4.3774 0.6875 5.375s2.7013 1.611 4.6562 1.5312c1.9549-0.0797 3.9602-0.85426 5.1562-2.0312s1.8195-2.5722 1.25-5a2.4136 2.4136 0 0 1 4.6562 -1.2188c0.97706 3.4686 2.3608 5.137 3.7188 5.9375s2.9658 0.91072 5 0.40625c4.0683-1.0089 9.1254-4.74 12.281-7.7812a2.4136 2.4136 0 0 1 2.5938 -0.46875c4.2521 1.7404 11.597 1.929 17.125-0.5 4.5065-1.9803 7.9252-5.27 8.5312-11.188-6.5377 4.1337-15.856 4.2236-21.594 1.875-6.684 6.4414-20.657 15.794-25 0.375 2.9405 12.535-20.546 14.161-16.438 0-9.9672 7.0616-13.344 2.3691-13.125-1.8125-4.5003 6.8964-22.812 5.3052-16.5-4.625-10.975-0.65273-16.862-3.8376-19.375-7.6562z" fill="#0a4"/>
  <path d="m468.1 292.22c-6.32 8.4034-4.3849 10.91 2.4749 9.8995-7.8804 5.5037-10.358 8.9815-3.182 8.8388-1.83 5.4834-0.75356 8.0603 4.9498 6.0104-8.4178 10.085 4.8037 25.373 19.445 9.5459 13.14 11.691 27.912 3.812 19.092-12.374 17.878 8.8293 23.088-4.3539 13.435-7.0711 9.7161 0.27168 17.212-0.98302 12.021-10.96 12.213-10.246 1.5078-17.116-18.738-8.1317 12.696-16.061-17.233-13.563-28.284-10.96-6.0838-9.4952-16.272-0.73231-9.6326 6.9034-8.0551-6.7166-24.771 5.8545-11.581 8.2994z" fill="#00c64f"/>
  <path d="m266.43 358.13c4.992-2.0171 4.3759-8.6442-6.8185-6.0609-3.3195-1.6324-4.5807-3.7793 2.7779-8.0812 8.5317 5.2272 10.718 2.6989 13.385 0.75761 8.0697-0.95549 2.3673-10.125-7.0711-11.364 6.7561-1.7217-14.796-19.244-17.93-3.283-11.114 0.42766-14.133 4.7106-11.112 11.869-8.9102-4.895-15.732-4.9863-17.93 5.5558-5.8221-4.573-24.002 1.3583-15.152 12.879-1.4838 8.5788 4.3092 8.5707 9.5964 5.3033-6.2942 6.6975 0.0886 18.728 15.657 14.395 8.4504 3.4017 16.318 4.3044 21.971-4.2932 0.75909 8.652 10.791 12.011 17.425 2.5254-2.4399 3.8543 5.62 6.9297 5.8084 0.50507 7.6717 6.8981 14.823 3.4684 13.132-2.7779 11.348 4.5837 21.182 2.292 12.879-6.3134 4.5052-2.5595 2.8862-8.1946-9.849-11.617 2.692-4.8776-6.8441-9.0988-10.709-2.4994-4.6823 3.6814-14.871 8.3674-16.06 2.4994z" fill="#008033"/>
  <path transform="translate(180.43 140.28)" d="m291.62 144.06c-1.8102 0.3317-3.5835 1.1042-4.8438 2.0312-1.4403 1.0595-1.8898 2.2136-1.875 2.3438 7e-3 0.0651-0.0395 0.10999 0.375 0.40625 0.41446 0.29626 1.3359 0.70083 2.7812 0.96875a2.1634 2.1634 0 0 1 1.3125 3.4375c-1.5166 2.0165-2.4814 3.6387-2.9688 4.7812s-0.39718 1.6815-0.40625 1.6562c-9e-3 -0.0253-0.18299-0.0392 0.4375 0.0937s1.8339 0.16917 3.4062-0.0625a2.1634 2.1634 0 0 1 1.5625 3.9062c-1.926 1.3451-3.4981 2.5554-4.625 3.5625-0.65172 0.58243-0.77329 0.82489-1.0938 1.2188 0.42693 0.0695 0.43913 0.14112 1.25 0.125a2.1634 2.1634 0 0 1 2.0938 2.8438c-0.42154 1.2631-0.67005 2.3032-0.71875 3-0.0393 0.56283 0.0471 0.78612 0.0625 0.84375 0.0255-5e-3 0.0289-7e-3 0.1875 0 0.42295 0.0184 1.3545-0.10586 2.625-0.5625a2.1634 2.1634 0 0 1 2.375 3.4062c-3.5072 4.2019-2.3958 9.0342 0.71875 11.406 1.5573 1.186 3.6406 1.7719 6.25 1.25s5.7865-2.2273 9.2188-5.9375a2.1634 2.1634 0 0 1 3.0312 -0.15625c6.0888 5.4176 12.089 5.9029 15.219 4.0312 1.5648-0.93585 2.5967-2.3732 2.875-4.625 0.1464-1.1845 0.072-2.6199-0.34375-4.25-3.7494-0.052-8.1983-1.7628-12.469-5.5625-14.642 15.827-27.855 0.55398-19.438-9.5312-5.7033 2.0499-6.7675-0.54783-4.9375-6.0312-7.1765 0.14265-4.6929-3.3401 3.1875-8.8438-5.5638 0.81978-7.8801-0.67236-5.1875-5.75-0.0202 4e-3 -0.0423-4e-3 -0.0625 0zm-3.25 31.156c-0.0425 8e-3 -0.025 0.0269 0 0.0625 8e-3 0.011 4e-3 -0.0488 0-0.0625zm62.219-20.438c1.3956 0.39285 2.5004 0.98653 3.2812 1.7188a2.1634 2.1634 0 0 1 0.1875 -1.7188c-1.1067 0.026-2.2757 0.0334-3.4688 0zm4.7188 5.6562c-0.25578 1.4779-1.3622 2.8465-3.2812 3.6562 0.9932-0.20788 1.7998-0.46191 2.3125-0.78125 0.78022-0.48598 1.0202-0.80066 1.0938-1.6875 0.0252-0.30455-0.0381-0.71486-0.125-1.1875zm-18.156 1.4062c2.8464 5.2237 3.22 9.5727 2 12.688 3.6755 0.52417 5.8668-0.41644 6.7188-1.3438 0.66863-0.72776 0.76221-1.387 0.46875-2.125s-1.1381-1.6458-3.0625-2.1875a2.1634 2.1634 0 0 1 0.65625 -4.25c0.58329 0.0163 1.1587 0.033 1.7188 0.0312-2.4016-0.3443-5.2456-1.2052-8.5-2.8125z" fill="#0a4"/>
  <path transform="translate(180.43 140.28)" d="m66.656 192.62c-0.86704 0.14891-1.6534 0.29323-2.3125 0.5 0.97729 0.43064 1.962 0.92977 3 1.5-0.29317-0.69473-0.50996-1.3603-0.6875-2zm23.438 4.0312c-4.5991 2.6887-5.8457 4.5319-5.3125 5.9375 2.0936 1.135 3.5812 1.6013 4.625 1.75 0.73521-0.10596 1.4093-0.16895 2.0312-0.1875 0.73128-0.3001 1.3878-0.86928 2.4688-1.6562a2.4211 2.4211 0 0 1 1.1562 -0.4375c1.5347-0.18171 1.6797-0.5761 1.6875-0.59375 0.0078-0.0177 0.10445-0.44344-0.4375-1.3125-0.16628-0.26664-0.3921-0.55547-0.65625-0.84375-1.4969-0.45112-3.301-1.2707-5.5625-2.6562zm-58 12.031c-0.96417 0.27339-1.917 0.61035-2.7188 1.0625-1.6939 0.9553-2.7582 2.1876-3.0938 3.4688s-0.15727 2.9544 1.75 5.4375a2.4211 2.4211 0 0 1 0.46875 1.875c-0.32563 1.8827-0.17836 3.1105 0.03125 3.6875s0.31703 0.60206 0.65625 0.71875c0.67844 0.23338 2.9757-0.13775 5.2812-1.5625a2.4211 2.4211 0 0 1 3.0312 3.7188c-2.3729 2.5249-2.287 5.6861-0.25 8.125s6.3546 4.239 13.5 2.25a2.4211 2.4211 0 0 1 1.5625 0.0937c4.0535 1.6317 7.7681 2.5658 10.844 2.2188 2.7969-0.31562 5.1925-1.5267 7.5-4.625-3.4801 0.17281-7.24-0.84237-11.125-2.4062-15.569 4.3338-21.95-7.6775-15.656-14.375-5.2873 3.2674-11.078 3.2663-9.5938-5.3125-1.2014-1.5641-1.8839-3.0292-2.1875-4.375zm49.406 19.781c-1.8432 2.8035-3.9298 4.5991-6.1875 5.625a2.4211 2.4211 0 0 1 0.46875 1.2188c0.30094 3.43 2.2335 5.3987 4.5938 5.9062s5.5251-0.36715 8.4375-4.5312a2.4211 2.4211 0 0 1 0.0625 -0.0312c-3.8392-0.37998-6.9638-3.5006-7.375-8.1875zm36.375 0.25c0.81663 3.0169-0.44141 5.3623-2.8125 6.2188 3.5066 0.81725 6.425 0.81787 7.5938 0.375 0.40963-0.15522 0.56959-0.31281 0.59375-0.34375 0.0242-0.0309 9e-3 0.0449 0-0.125-0.0173-0.33971-0.5336-1.7465-2.4062-3.6875a2.4211 2.4211 0 0 1 -0.65625 -1.5938c-0.76419-0.25125-1.5284-0.52703-2.3125-0.84375zm-18.938 2.2812c-2.0733 2.9644-4.4936 4.6578-6.8438 5.3438a2.4211 2.4211 0 0 1 0.71875 3c-0.06459 0.10204-0.04851 0.10732-0.0625 0.125 0.02316 0.0406 0.27389 0.26949 0.5625 0.34375 0.28861 0.0743 0.43694 0.0158 0.5-0.0312 0.06306-0.0471 0.34291-0.18654 0.375-1.2812a2.4211 2.4211 0 0 1 4.0312 -1.75c3.4095 3.0658 6.3308 3.4664 7.75 3.0312 0.7096-0.21756 1.0947-0.56943 1.3438-1.0625s0.35823-1.2199 0.0625-2.3125a2.4211 2.4211 0 0 1 0.78125 -2.4688c-1.113-0.5977-2.2712-1.3888-3.4375-2.4375-0.18833 6.4246-8.2212 3.3543-5.7812-0.5z" fill="#00692a"/>
 </g>
</svg>
